<svg width="20" height="20" viewBox="0 0 20 20" fill="none" xmlns="http://www.w3.org/2000/svg">
<path d="M8.0166 13.334L9.2666 14.584L11.9749 12.084" stroke="#FF133D" stroke-width="2" stroke-linecap="round" stroke-linejoin="round"/>
<path d="M7.34186 1.66602L4.3252 4.69102" stroke="#FF133D" stroke-width="2" stroke-miterlimit="10" stroke-linecap="round" stroke-linejoin="round"/>
<path d="M12.6582 1.66602L15.6749 4.69102" stroke="#FF133D" stroke-width="2" stroke-miterlimit="10" stroke-linecap="round" stroke-linejoin="round"/>
<path d="M1.6665 6.54167C1.6665 5 2.4915 4.875 3.5165 4.875H16.4832C17.5082 4.875 18.3332 5 18.3332 6.54167C18.3332 8.33333 17.5082 8.20833 16.4832 8.20833H3.5165C2.4915 8.20833 1.6665 8.33333 1.6665 6.54167Z" stroke="#FF133D" stroke-width="2"/>
<path d="M2.9165 8.33398L4.0915 15.534C4.35817 17.1507 4.99984 18.334 7.38317 18.334H12.4082C14.9998 18.334 15.3832 17.2007 15.6832 15.634L17.0832 8.33398" stroke="#FF133D" stroke-width="2" stroke-linecap="round"/>
</svg>
