<svg width="72" height="73" viewBox="0 0 72 73" fill="none" xmlns="http://www.w3.org/2000/svg">
<path opacity="0.4" d="M57.72 17.2397H56.52L46.38 7.09969C45.57 6.28969 44.25 6.28969 43.41 7.09969C42.6 7.90969 42.6 9.22969 43.41 10.0697L50.58 17.2397H21.42L28.59 10.0697C29.4 9.25969 29.4 7.93969 28.59 7.09969C27.78 6.28969 26.46 6.28969 25.62 7.09969L15.51 17.2397H14.31C11.61 17.2397 6 17.2397 6 24.9197C6 27.8297 6.6 29.7497 7.86 31.0097C8.58 31.7597 9.45 32.1497 10.38 32.3597C11.25 32.5697 12.18 32.5997 13.08 32.5997H58.92C59.85 32.5997 60.72 32.5397 61.56 32.3597C64.08 31.7597 66 29.9597 66 24.9197C66 17.2397 60.39 17.2397 57.72 17.2397Z" fill="#1053D5"/>
<path d="M58.9799 32.6001H13.0799C12.2099 32.6001 11.2499 32.5701 10.3799 32.3301L14.1599 55.4001C15.0299 60.5601 17.2799 66.5001 27.2699 66.5001H44.0999C54.2099 66.5001 56.0099 61.4301 57.0899 55.7601L61.6199 32.3301C60.7799 32.5401 59.8799 32.6001 58.9799 32.6001ZM44.6399 45.6501L34.8899 54.6501C34.4699 55.0401 33.8999 55.2501 33.3599 55.2501C32.7899 55.2501 32.2199 55.0401 31.7699 54.5901L27.2699 50.0901C26.3999 49.2201 26.3999 47.7801 27.2699 46.9101C28.1399 46.0401 29.5799 46.0401 30.4499 46.9101L33.4199 49.8801L41.5799 42.3501C42.4799 41.5101 43.9199 41.5701 44.7599 42.4701C45.6299 43.4001 45.5699 44.8101 44.6399 45.6501Z" fill="#1053D5"/>
</svg>
