<svg width="64" height="65" viewBox="0 0 64 65" fill="none" xmlns="http://www.w3.org/2000/svg">
<path opacity="0.4" d="M51.3068 15.3795H50.2402L41.2268 6.36617C40.5068 5.64617 39.3335 5.64617 38.5868 6.36617C37.8668 7.08617 37.8668 8.25951 38.5868 9.00617L44.9602 15.3795H19.0402L25.4135 9.00617C26.1335 8.28617 26.1335 7.11284 25.4135 6.36617C24.6935 5.64617 23.5202 5.64617 22.7735 6.36617L13.7868 15.3795H12.7202C10.3202 15.3795 5.3335 15.3795 5.3335 22.2062C5.3335 24.7928 5.86683 26.4995 6.98683 27.6195C7.62683 28.2862 8.40016 28.6328 9.22683 28.8195C10.0002 29.0062 10.8268 29.0328 11.6268 29.0328H52.3735C53.2002 29.0328 53.9735 28.9795 54.7202 28.8195C56.9602 28.2862 58.6668 26.6862 58.6668 22.2062C58.6668 15.3795 53.6802 15.3795 51.3068 15.3795Z" fill="#1053D5"/>
<path d="M52.4266 29.033H11.6266C10.8532 29.033 9.9999 29.0063 9.22656 28.793L12.5866 49.2996C13.3599 53.8863 15.3599 59.1663 24.2399 59.1663H39.1999C48.1866 59.1663 49.7866 54.6596 50.7466 49.6196L54.7732 28.793C54.0266 28.9796 53.2266 29.033 52.4266 29.033ZM37.1199 48.2063C36.7199 48.6063 36.2132 48.793 35.7066 48.793C35.1999 48.793 34.6932 48.6063 34.2932 48.2063L32.0266 45.9396L29.6799 48.2863C29.2799 48.6863 28.7732 48.873 28.2666 48.873C27.7599 48.873 27.2532 48.6863 26.8532 48.2863C26.0799 47.513 26.0799 46.233 26.8532 45.4596L29.1999 43.113L26.9332 40.8463C26.1599 40.073 26.1599 38.793 26.9332 38.0196C27.7066 37.2463 28.9866 37.2463 29.7599 38.0196L32.0266 40.2863L34.2132 38.0996C34.9866 37.3263 36.2666 37.3263 37.0399 38.0996C37.8132 38.873 37.8132 40.153 37.0399 40.9263L34.8532 43.113L37.1199 45.3796C37.9199 46.1796 37.9199 47.433 37.1199 48.2063Z" fill="#1053D5"/>
</svg>
