<svg width="52" height="52" viewBox="0 0 52 52" fill="none" xmlns="http://www.w3.org/2000/svg">
<path opacity="0.4" d="M41.925 12.2639L28.2966 4.91898C26.8666 4.13898 25.1333 4.13898 23.6816 4.91898L10.0533 12.2639C9.05666 12.8055 8.44995 13.8673 8.44995 15.0373C8.44995 16.2073 9.05666 17.2689 10.0533 17.8105L23.6816 25.1556C24.3966 25.5456 25.1983 25.7406 25.9783 25.7406C26.7583 25.7406 27.5599 25.5456 28.2749 25.1556L41.9033 17.8105C42.9 17.2689 43.5066 16.2073 43.5066 15.0373C43.5499 13.8673 42.9216 12.8055 41.925 12.2639Z" fill="#1053D5"/>
<path opacity="0.4" d="M21.45 27.7121L8.77495 21.3638C7.79995 20.8655 6.67329 20.9305 5.74163 21.4938C4.80996 22.0572 4.26831 23.0539 4.26831 24.1372V36.1188C4.26831 38.1988 5.41661 40.0622 7.27994 40.9938L19.955 47.3206C20.3883 47.5372 20.865 47.6455 21.3417 47.6455C21.905 47.6455 22.4683 47.4939 22.9667 47.1689C23.8983 46.6056 24.44 45.6088 24.44 44.5255V32.5439C24.4616 30.5072 23.3133 28.6438 21.45 27.7121Z" fill="#1053D5"/>
<path opacity="0.4" d="M47.7317 24.1583V34.1032C47.71 34.0815 47.6883 34.0382 47.6667 34.0166C47.6667 33.9949 47.645 33.9732 47.6234 33.9515C47.5367 33.8215 47.4283 33.6915 47.32 33.5832C47.2983 33.5615 47.2767 33.5183 47.255 33.4966C45.5 31.5466 42.9217 30.3332 40.0833 30.3332C37.3533 30.3332 34.8617 31.4598 33.085 33.2798C31.3733 35.0348 30.3333 37.4399 30.3333 40.0832C30.3333 41.9032 30.8533 43.6366 31.7417 45.1099C32.11 45.7382 32.565 46.3015 33.0634 46.8215L32.045 47.3415C31.6117 47.5582 31.135 47.6665 30.6583 47.6665C30.095 47.6665 29.5317 47.5149 29.0117 47.1899C28.1017 46.6266 27.5383 45.6299 27.5383 44.5465V32.5865C27.5383 30.5065 28.6867 28.6432 30.55 27.7115L43.225 21.3849C44.2 20.8865 45.3267 20.9299 46.2584 21.5149C47.1684 22.0782 47.7317 23.0749 47.7317 24.1583Z" fill="#1053D5"/>
<path d="M47.6234 33.9519C45.8467 31.7635 43.1384 30.377 40.0834 30.377C37.7867 30.377 35.6634 31.1786 33.995 32.5219C31.7417 34.2986 30.3334 37.0503 30.3334 40.127C30.3334 41.947 30.8534 43.6803 31.7417 45.1536C32.3267 46.1286 33.0634 46.9736 33.93 47.6669H33.9517C35.6201 49.0536 37.765 49.877 40.0834 49.877C42.5534 49.877 44.785 48.967 46.4967 47.4503C47.255 46.8003 47.9051 46.0203 48.4251 45.1536C49.3134 43.6803 49.8334 41.947 49.8334 40.127C49.8334 37.787 49.0101 35.6202 47.6234 33.9519ZM44.9801 38.9136L39.78 43.7236C39.4767 44.0052 39.0651 44.1569 38.6751 44.1569C38.2634 44.1569 37.8517 44.0052 37.5267 43.6802L35.1217 41.2752C34.4934 40.6469 34.4934 39.6069 35.1217 38.9786C35.75 38.3502 36.79 38.3502 37.4184 38.9786L38.7184 40.2786L42.77 36.5302C43.42 35.9235 44.46 35.967 45.0667 36.617C45.695 37.2886 45.6517 38.307 44.9801 38.9136Z" fill="#1053D5"/>
</svg>
