<svg width="24" height="24" viewBox="0 0 24 24" fill="none" xmlns="http://www.w3.org/2000/svg">
<mask id="path-1-inside-1_317_8929" fill="white">
<path d="M5.33 19.4203C5.22 19.4203 5.1 19.3903 5 19.3403L2.78 18.2303C2.53 18.1003 2.37 17.8403 2.37 17.5603V14.7803C2.37 14.3703 2.71 14.0303 3.12 14.0303C3.53 14.0303 3.87 14.3703 3.87 14.7803V17.0903L5.67 18.0003C6.04 18.1803 6.19 18.6303 6 19.0003C5.87 19.2603 5.61 19.4203 5.33 19.4203Z"/>
</mask>
<path d="M5 19.3403L4.10557 21.1291L4.10557 21.1291L5 19.3403ZM2.78 18.2303L1.85729 20.0047L1.87137 20.012L1.88557 20.0191L2.78 18.2303ZM3.87 17.0903H1.87V18.3202L2.96764 18.8751L3.87 17.0903ZM5.67 18.0003L4.76764 19.7851L4.7813 19.792L4.79506 19.7987L5.67 18.0003ZM6 19.0003L4.22086 18.0867L4.21595 18.0962L4.21114 18.1058L6 19.0003ZM5.33 19.4203V17.4203C5.45206 17.4203 5.55444 17.4363 5.63615 17.4562C5.71857 17.4764 5.80493 17.5067 5.89442 17.5514L5 19.3403L4.10557 21.1291C4.46355 21.3081 4.88817 21.4203 5.33 21.4203V19.4203ZM5 19.3403L5.89442 17.5514L3.67442 16.4414L2.78 18.2303L1.88557 20.0191L4.10557 21.1291L5 19.3403ZM2.78 18.2303L3.7027 16.4558C4.10297 16.664 4.37 17.081 4.37 17.5603H2.37H0.369995C0.369995 18.5995 0.957024 19.5366 1.85729 20.0047L2.78 18.2303ZM2.37 17.5603H4.37V14.7803H2.37H0.369995V17.5603H2.37ZM2.37 14.7803H4.37C4.37 15.4748 3.81456 16.0303 3.12 16.0303V14.0303V12.0303C1.60543 12.0303 0.369995 13.2657 0.369995 14.7803H2.37ZM3.12 14.0303V16.0303C2.42543 16.0303 1.87 15.4748 1.87 14.7803H3.87H5.87C5.87 13.2657 4.63456 12.0303 3.12 12.0303V14.0303ZM3.87 14.7803H1.87V17.0903H3.87H5.87V14.7803H3.87ZM3.87 17.0903L2.96764 18.8751L4.76764 19.7851L5.67 18.0003L6.57235 16.2154L4.77235 15.3054L3.87 17.0903ZM5.67 18.0003L4.79506 19.7987C4.14928 19.4846 3.90227 18.7071 4.22086 18.0867L6 19.0003L7.77913 19.9139C8.47772 18.5535 7.93071 16.876 6.54493 16.2018L5.67 18.0003ZM6 19.0003L4.21114 18.1058C4.41422 17.6997 4.83977 17.4203 5.33 17.4203V19.4203V21.4203C6.38022 21.4203 7.32577 20.8209 7.78885 19.8947L6 19.0003Z" fill="#6A7686" mask="url(#path-1-inside-1_317_8929)"/>
<mask id="path-3-inside-2_317_8929" fill="white">
<path d="M12 22.7497C11.94 22.7497 11.88 22.7397 11.83 22.7297C11.77 22.7197 11.71 22.6897 11.65 22.6597L9.43996 21.5597C9.06996 21.3697 8.91996 20.9197 9.09996 20.5497C9.28996 20.1797 9.73996 20.0297 10.11 20.2097L11.25 20.7797V19.2197C11.25 18.8097 11.59 18.4697 12 18.4697C12.41 18.4697 12.75 18.8097 12.75 19.2197V20.7797L13.89 20.2097C14.26 20.0297 14.71 20.1797 14.9 20.5497C15.09 20.9197 14.94 21.3697 14.56 21.5597L12.35 22.6597C12.29 22.6897 12.23 22.7097 12.17 22.7297C12.11 22.7397 12.06 22.7497 12 22.7497Z"/>
</mask>
<path d="M12 22.7497C11.94 22.7497 11.88 22.7397 11.83 22.7297C11.77 22.7197 11.71 22.6897 11.65 22.6597L9.43996 21.5597C9.06996 21.3697 8.91996 20.9197 9.09996 20.5497C9.28996 20.1797 9.73996 20.0297 10.11 20.2097L11.25 20.7797V19.2197C11.25 18.8097 11.59 18.4697 12 18.4697C12.41 18.4697 12.75 18.8097 12.75 19.2197V20.7797L13.89 20.2097C14.26 20.0297 14.71 20.1797 14.9 20.5497C15.09 20.9197 14.94 21.3697 14.56 21.5597L12.35 22.6597C12.29 22.6897 12.23 22.7097 12.17 22.7297C12.11 22.7397 12.06 22.7497 12 22.7497Z" fill="#6A7686"/>
<path d="M11.83 22.7297L12.2222 20.7686L12.1906 20.7622L12.1588 20.7569L11.83 22.7297ZM11.65 22.6597L12.5444 20.8709L12.5411 20.8693L11.65 22.6597ZM9.43996 21.5597L8.52635 23.3389L8.53753 23.3446L8.54878 23.3502L9.43996 21.5597ZM9.09996 20.5497L7.32083 19.6361L7.31095 19.6554L7.30149 19.6748L9.09996 20.5497ZM10.11 20.2097L11.0044 18.4209L10.9947 18.416L10.9849 18.4113L10.11 20.2097ZM11.25 20.7797L10.3555 22.5686L13.25 24.0158V20.7797H11.25ZM12.75 20.7797H10.75V24.0158L13.6444 22.5686L12.75 20.7797ZM13.89 20.2097L13.015 18.4113L13.0053 18.416L12.9955 18.4209L13.89 20.2097ZM14.56 21.5597L15.4511 23.3502L15.4544 23.3486L14.56 21.5597ZM12.35 22.6597L11.4588 20.8693L11.4555 20.8709L12.35 22.6597ZM12.17 22.7297L12.4988 24.7025L12.6535 24.6767L12.8024 24.6271L12.17 22.7297ZM12 22.7497V20.7497C12.0782 20.7497 12.1375 20.756 12.1699 20.7603C12.1872 20.7625 12.2006 20.7647 12.209 20.7662C12.2133 20.7669 12.2166 20.7675 12.2188 20.7679C12.2199 20.7681 12.2207 20.7683 12.2213 20.7684C12.2219 20.7685 12.2222 20.7686 12.2222 20.7686L11.83 22.7297L11.4377 24.6909C11.5227 24.7079 11.7382 24.7497 12 24.7497V22.7497ZM11.83 22.7297L12.1588 20.7569C12.3346 20.7862 12.4601 20.8356 12.5092 20.8561C12.5539 20.8747 12.5861 20.8917 12.5444 20.8709L11.65 22.6597L10.7555 24.4486C10.7738 24.4577 10.8661 24.5048 10.9707 24.5484C11.0798 24.5938 11.2653 24.6632 11.5012 24.7025L11.83 22.7297ZM11.65 22.6597L12.5411 20.8693L10.3311 19.7693L9.43996 21.5597L8.54878 23.3502L10.7588 24.4502L11.65 22.6597ZM9.43996 21.5597L10.3536 19.7806C10.9445 20.0841 11.1975 20.8099 10.8984 21.4247L9.09996 20.5497L7.30149 19.6748C6.6424 21.0296 7.19538 22.6554 8.52635 23.3389L9.43996 21.5597ZM9.09996 20.5497L10.8791 21.4633C10.5756 22.0543 9.84983 22.3073 9.23503 22.0082L10.11 20.2097L10.9849 18.4113C9.63009 17.7522 8.0043 18.3051 7.32083 19.6361L9.09996 20.5497ZM10.11 20.2097L9.21553 21.9986L10.3555 22.5686L11.25 20.7797L12.1444 18.9909L11.0044 18.4209L10.11 20.2097ZM11.25 20.7797H13.25V19.2197H11.25H9.24996V20.7797H11.25ZM11.25 19.2197H13.25C13.25 19.9143 12.6945 20.4697 12 20.4697V18.4697V16.4697C10.4854 16.4697 9.24996 17.7052 9.24996 19.2197H11.25ZM12 18.4697V20.4697C11.3054 20.4697 10.75 19.9143 10.75 19.2197H12.75H14.75C14.75 17.7052 13.5145 16.4697 12 16.4697V18.4697ZM12.75 19.2197H10.75V20.7797H12.75H14.75V19.2197H12.75ZM12.75 20.7797L13.6444 22.5686L14.7844 21.9986L13.89 20.2097L12.9955 18.4209L11.8555 18.9909L12.75 20.7797ZM13.89 20.2097L14.7649 22.0082C14.1501 22.3073 13.4243 22.0543 13.1208 21.4633L14.9 20.5497L16.6791 19.6361C15.9956 18.3051 14.3698 17.7522 13.015 18.4113L13.89 20.2097ZM14.9 20.5497L13.1208 21.4633C12.7896 20.8183 13.0753 20.066 13.6655 19.7709L14.56 21.5597L15.4544 23.3486C16.8046 22.6735 17.3903 21.0211 16.6791 19.6361L14.9 20.5497ZM14.56 21.5597L13.6688 19.7693L11.4588 20.8693L12.35 22.6597L13.2411 24.4502L15.4511 23.3502L14.56 21.5597ZM12.35 22.6597L11.4555 20.8709C11.5049 20.8462 11.5425 20.8315 11.5577 20.8258C11.5651 20.823 11.5685 20.8219 11.5648 20.8232C11.5601 20.8248 11.554 20.8269 11.5375 20.8324L12.17 22.7297L12.8024 24.6271C12.8456 24.6127 13.038 24.5518 13.2444 24.4486L12.35 22.6597ZM12.17 22.7297L11.8412 20.7569C11.8297 20.7589 11.819 20.7607 11.8122 20.7618C11.8042 20.7632 11.8007 20.7638 11.7977 20.7643C11.7919 20.7653 11.8002 20.7638 11.8147 20.7618C11.8488 20.7572 11.9151 20.7497 12 20.7497V22.7497V24.7497C12.1448 24.7497 12.2661 24.7373 12.3552 24.7251C12.3973 24.7194 12.4331 24.7136 12.4553 24.7099C12.4664 24.708 12.4771 24.7062 12.4836 24.7051C12.4912 24.7038 12.4952 24.7031 12.4988 24.7025L12.17 22.7297Z" fill="#6A7686" mask="url(#path-3-inside-2_317_8929)"/>
<mask id="path-5-inside-3_317_8929" fill="white">
<path d="M18.6701 19.42C18.4001 19.42 18.1301 19.27 18.0001 19.01C17.8101 18.64 17.9601 18.19 18.3401 18L20.1501 17.1V14.79C20.1501 14.38 20.4901 14.04 20.9001 14.04C21.3101 14.04 21.6501 14.38 21.6501 14.79V17.57C21.6501 17.85 21.4901 18.11 21.2401 18.24L19.0001 19.34C18.8901 19.39 18.7801 19.42 18.6701 19.42Z"/>
</mask>
<path d="M18.6701 19.42C18.4001 19.42 18.1301 19.27 18.0001 19.01C17.8101 18.64 17.9601 18.19 18.3401 18L20.1501 17.1V14.79C20.1501 14.38 20.4901 14.04 20.9001 14.04C21.3101 14.04 21.6501 14.38 21.6501 14.79V17.57C21.6501 17.85 21.4901 18.11 21.2401 18.24L19.0001 19.34C18.8901 19.39 18.7801 19.42 18.6701 19.42Z" fill="#6A7686"/>
<path d="M18.0001 19.01L19.7889 18.1156L19.7841 18.106L19.7792 18.0964L18.0001 19.01ZM18.3401 18L17.4496 16.2092L17.4456 16.2112L18.3401 18ZM20.1501 17.1L21.0405 18.8909L22.1501 18.3392V17.1H20.1501ZM21.2401 18.24L22.1216 20.0353L22.1423 20.0251L22.1628 20.0145L21.2401 18.24ZM19.0001 19.34L19.8277 21.1608L19.8548 21.1484L19.8816 21.1353L19.0001 19.34ZM18.6701 19.42V17.42C19.1059 17.42 19.5576 17.653 19.7889 18.1156L18.0001 19.01L16.2112 19.9045C16.7025 20.8871 17.6943 21.42 18.6701 21.42V19.42ZM18.0001 19.01L19.7792 18.0964C20.1104 18.7415 19.8247 19.4938 19.2345 19.7889L18.3401 18L17.4456 16.2112C16.0954 16.8863 15.5097 18.5386 16.2209 19.9236L18.0001 19.01ZM18.3401 18L19.2305 19.7909L21.0405 18.8909L20.1501 17.1L19.2596 15.3092L17.4496 16.2092L18.3401 18ZM20.1501 17.1H22.1501V14.79H20.1501H18.1501V17.1H20.1501ZM20.1501 14.79H22.1501C22.1501 15.4846 21.5946 16.04 20.9001 16.04V14.04V12.04C19.3855 12.04 18.1501 13.2755 18.1501 14.79H20.1501ZM20.9001 14.04V16.04C20.2055 16.04 19.6501 15.4846 19.6501 14.79H21.6501H23.6501C23.6501 13.2755 22.4146 12.04 20.9001 12.04V14.04ZM21.6501 14.79H19.6501V17.57H21.6501H23.6501V14.79H21.6501ZM21.6501 17.57H19.6501C19.6501 17.0908 19.9171 16.6737 20.3174 16.4656L21.2401 18.24L22.1628 20.0145C23.063 19.5463 23.6501 18.6093 23.6501 17.57H21.6501ZM21.2401 18.24L20.3585 16.4448L18.1185 17.5448L19.0001 19.34L19.8816 21.1353L22.1216 20.0353L21.2401 18.24ZM19.0001 19.34L18.1725 17.5193C18.238 17.4895 18.4145 17.42 18.6701 17.42V19.42V21.42C19.1456 21.42 19.5421 21.2906 19.8277 21.1608L19.0001 19.34Z" fill="#6A7686" mask="url(#path-5-inside-3_317_8929)"/>
<mask id="path-7-inside-4_317_8929" fill="white">
<path d="M12 14.42C11.59 14.42 11.25 14.08 11.25 13.67V11.36L9.43996 10.46C9.06996 10.27 8.91996 9.82004 9.09996 9.45005C9.28996 9.08005 9.73996 8.93004 10.11 9.11004L12 10.05L13.89 9.11004C14.26 8.93004 14.71 9.07005 14.9 9.45005C15.09 9.82004 14.94 10.27 14.56 10.46L12.75 11.36V13.67C12.75 14.08 12.41 14.42 12 14.42Z"/>
</mask>
<path d="M12 14.42C11.59 14.42 11.25 14.08 11.25 13.67V11.36L9.43996 10.46C9.06996 10.27 8.91996 9.82004 9.09996 9.45005C9.28996 9.08005 9.73996 8.93004 10.11 9.11004L12 10.05L13.89 9.11004C14.26 8.93004 14.71 9.07005 14.9 9.45005C15.09 9.82004 14.94 10.27 14.56 10.46L12.75 11.36V13.67C12.75 14.08 12.41 14.42 12 14.42Z" fill="#6A7686"/>
<path d="M11.25 11.36H13.25V10.1209L12.1404 9.56922L11.25 11.36ZM9.43996 10.46L8.52635 12.2392L8.53788 12.2451L8.54949 12.2509L9.43996 10.46ZM9.09996 9.45005L7.32083 8.53644L7.31095 8.55567L7.30149 8.57511L9.09996 9.45005ZM10.11 9.11004L11.0006 7.3193L10.9928 7.3154L10.9849 7.31157L10.11 9.11004ZM12 10.05L11.1093 11.8408L12 12.2838L12.8906 11.8408L12 10.05ZM13.89 9.11004L13.015 7.31157L13.0072 7.3154L12.9993 7.3193L13.89 9.11004ZM14.9 9.45005L13.1111 10.3445L13.1159 10.3541L13.1208 10.3637L14.9 9.45005ZM14.56 10.46L15.4504 12.2509L15.4544 12.2489L14.56 10.46ZM12.75 11.36L11.8595 9.56922L10.75 10.1209V11.36H12.75ZM12 14.42V12.42C12.6945 12.42 13.25 12.9755 13.25 13.67H11.25H9.24996C9.24996 15.1846 10.4854 16.42 12 16.42V14.42ZM11.25 13.67H13.25V11.36H11.25H9.24996V13.67H11.25ZM11.25 11.36L12.1404 9.56922L10.3304 8.66922L9.43996 10.46L8.54949 12.2509L10.3595 13.1509L11.25 11.36ZM9.43996 10.46L10.3536 8.68091C10.9445 8.98438 11.1975 9.71018 10.8984 10.325L9.09996 9.45005L7.30149 8.57511C6.6424 9.92991 7.19538 11.5557 8.52635 12.2392L9.43996 10.46ZM9.09996 9.45005L10.8791 10.3637C10.5756 10.9546 9.84983 11.2076 9.23503 10.9085L10.11 9.11004L10.9849 7.31157C9.63009 6.65248 8.0043 7.20547 7.32083 8.53644L9.09996 9.45005ZM10.11 9.11004L9.21933 10.9008L11.1093 11.8408L12 10.05L12.8906 8.2593L11.0006 7.3193L10.11 9.11004ZM12 10.05L12.8906 11.8408L14.7806 10.9008L13.89 9.11004L12.9993 7.3193L11.1093 8.2593L12 10.05ZM13.89 9.11004L14.7649 10.9085C14.1816 11.1923 13.4272 10.9767 13.1111 10.3445L14.9 9.45005L16.6888 8.55562C15.9927 7.16336 14.3383 6.66782 13.015 7.31157L13.89 9.11004ZM14.9 9.45005L13.1208 10.3637C12.7896 9.71862 13.0753 8.96629 13.6655 8.67119L14.56 10.46L15.4544 12.2489C16.8046 11.5738 17.3903 9.92147 16.6791 8.53644L14.9 9.45005ZM14.56 10.46L13.6695 8.66922L11.8595 9.56922L12.75 11.36L13.6404 13.1509L15.4504 12.2509L14.56 10.46ZM12.75 11.36H10.75V13.67H12.75H14.75V11.36H12.75ZM12.75 13.67H10.75C10.75 12.9755 11.3054 12.42 12 12.42V14.42V16.42C13.5145 16.42 14.75 15.1846 14.75 13.67H12.75Z" fill="#6A7686" mask="url(#path-7-inside-4_317_8929)"/>
<path d="M3.10999 9.97002C2.69999 9.97002 2.35999 9.63002 2.35999 9.22002V6.46002V6.45002C2.35999 6.39002 2.36999 6.33002 2.37999 6.28002C2.39999 6.19002 2.42999 6.12002 2.46999 6.05002C2.49999 6.00002 2.53999 5.96002 2.57999 5.92002C2.61999 5.88002 2.66999 5.84002 2.71999 5.81002C2.73999 5.80002 2.76999 5.78002 2.78999 5.77002L4.99999 4.66002C5.36999 4.48002 5.81999 4.63002 5.99999 5.00002C6.18999 5.37002 6.03999 5.82002 5.66999 6.00002L4.78999 6.44002L5.66999 6.88002C6.03999 7.07002 6.18999 7.52002 5.99999 7.89002C5.81999 8.26002 5.36999 8.41002 4.99999 8.23002L3.85999 7.66002V9.22002C3.85999 9.64002 3.52999 9.97002 3.10999 9.97002Z" fill="#6A7686"/>
<path d="M14.2201 3.85957C14.1101 3.85957 13.9901 3.82957 13.8901 3.77957L12.0001 2.83957L10.1101 3.77957C9.74005 3.96957 9.29005 3.81957 9.11005 3.44957C8.92005 3.07957 9.07005 2.62957 9.44005 2.43957L11.6601 1.32957C11.8701 1.21957 12.1201 1.21957 12.3301 1.32957L14.5501 2.43957C14.9201 2.62957 15.0701 3.07957 14.8901 3.44957C14.7601 3.70957 14.5001 3.85957 14.2201 3.85957Z" fill="#6A7686"/>
<path d="M20.8899 9.97002C20.4799 9.97002 20.1399 9.63002 20.1399 9.22002V7.66002L18.9999 8.23002C18.6299 8.41002 18.1799 8.26002 17.9999 7.89002C17.8099 7.52002 17.9599 7.07002 18.3399 6.88002L19.2199 6.44002L18.3299 6.00002C17.9599 5.82002 17.8099 5.37002 17.9999 5.00002C18.1899 4.63002 18.6299 4.48002 18.9999 4.66002L21.2099 5.76002C21.2299 5.77002 21.2599 5.78002 21.2799 5.80002C21.3399 5.83002 21.3899 5.88002 21.4399 5.93002C21.4699 5.97002 21.4999 6.01002 21.5299 6.05002C21.5699 6.12002 21.5999 6.19002 21.6199 6.27002C21.6299 6.33002 21.6399 6.39002 21.6399 6.44002V6.45002V9.21002C21.6399 9.64002 21.2999 9.97002 20.8899 9.97002Z" fill="#6A7686"/>
</svg>
