<svg width="20" height="20" viewBox="0 0 20 20" fill="none" xmlns="http://www.w3.org/2000/svg">
<g clip-path="url(#clip0_437_28927)">
<path d="M3.18823 8.48369C3.18823 8.48369 4.46994 7.64395 5.00494 6.95076C5.63051 6.14021 6.59449 5.07715 6.59449 5.07715C6.59449 5.07715 8.38059 5.80859 10.0007 5.92869C11.4675 6.03742 11.9545 5.22996 13.407 5.41783C15.5118 5.69004 16.8136 8.48369 16.8136 8.48369" stroke="#292D32" stroke-width="2" stroke-linecap="round" stroke-linejoin="round"/>
<path d="M16.8136 12.4658V9.74077V7.69696C16.8136 3.93442 13.7635 0.884277 10.0009 0.884277V0.884277C6.23838 0.884277 3.18823 3.93442 3.18823 7.69696V11.7846C3.18823 15.5471 6.23838 18.5973 10.0009 18.5973V18.5973" stroke="#292D32" stroke-width="2" stroke-linecap="round"/>
<path d="M16.8137 9.74121H17.1897C17.949 9.74121 18.5645 10.3567 18.5645 11.116C18.5645 11.8753 17.949 12.4908 17.1897 12.4908H16.8137V9.74121Z" fill="#292D32" stroke="#292D32" stroke-width="2" stroke-linejoin="round"/>
<path d="M3.18872 9.74121H2.81276C2.05348 9.74121 1.43795 10.3567 1.43795 11.116C1.43795 11.8753 2.05348 12.4908 2.81276 12.4908H3.18872V9.74121Z" fill="#292D32" stroke="#292D32" stroke-width="2" stroke-linejoin="round"/>
<rect x="-0.701424" y="0.701424" width="1.40285" height="1.40285" rx="0.701424" transform="matrix(-1 0 0 1 10.6821 17.1943)" fill="#292D32" stroke="#292D32" stroke-width="1.40285"/>
<circle cx="7.5" cy="10.1167" r="1.25" fill="#292D32"/>
<circle cx="12.5" cy="10.1167" r="1.25" fill="#292D32"/>
</g>
<defs>
<clipPath id="clip0_437_28927">
<rect width="20" height="20" fill="white"/>
</clipPath>
</defs>
</svg>
