<svg width="20" height="20" viewBox="0 0 20 20" fill="none" xmlns="http://www.w3.org/2000/svg">
<g clip-path="url(#clip0_429_20131)">
<path d="M3.18799 8.48466C3.18799 8.48466 4.46969 7.64493 5.00469 6.95173C5.63026 6.14118 6.59425 5.07812 6.59425 5.07812C6.59425 5.07812 8.38034 5.80957 10.0005 5.92966C11.4673 6.0384 11.9542 5.23094 13.4068 5.4188C15.5115 5.69102 16.8134 8.48466 16.8134 8.48466" stroke="#6A7686" stroke-width="2" stroke-linecap="round" stroke-linejoin="round"/>
<path d="M16.8134 12.4663V9.74126V7.69745C16.8134 3.93491 13.7632 0.884766 10.0007 0.884766V0.884766C6.23813 0.884766 3.18799 3.9349 3.18799 7.69745V11.7851C3.18799 15.5476 6.23813 18.5977 10.0007 18.5977V18.5977" stroke="#6A7686" stroke-width="2" stroke-linecap="round"/>
<path d="M16.8136 9.74219H17.1896C17.9488 9.74219 18.5644 10.3577 18.5644 11.117C18.5644 11.8763 17.9488 12.4918 17.1896 12.4918H16.8136V9.74219Z" fill="#6A7686" stroke="#6A7686" stroke-width="2" stroke-linejoin="round"/>
<path d="M3.1886 9.74219H2.81264C2.05335 9.74219 1.43783 10.3577 1.43783 11.117C1.43783 11.8763 2.05335 12.4918 2.81264 12.4918H3.1886V9.74219Z" fill="#6A7686" stroke="#6A7686" stroke-width="2" stroke-linejoin="round"/>
<rect x="-0.701424" y="0.701424" width="1.40285" height="1.40285" rx="0.701424" transform="matrix(-1 0 0 1 10.6819 17.1953)" fill="#6A7686" stroke="#6A7686" stroke-width="1.40285"/>
<circle cx="7.5" cy="10.1172" r="1.25" fill="#6A7686"/>
<circle cx="12.5" cy="10.1172" r="1.25" fill="#6A7686"/>
</g>
<defs>
<clipPath id="clip0_429_20131">
<rect width="20" height="20" fill="white"/>
</clipPath>
</defs>
</svg>
