<svg width="32" height="32" viewBox="0 0 32 32" fill="none" xmlns="http://www.w3.org/2000/svg">
<path d="M27.9602 1.33325H24.0402C22.3468 1.33325 21.3335 2.34659 21.3335 4.03992V7.95992C21.3335 9.65325 22.3468 10.6666 24.0402 10.6666H27.9602C29.6535 10.6666 30.6668 9.65325 30.6668 7.95992V4.03992C30.6668 2.34659 29.6535 1.33325 27.9602 1.33325ZM28.2535 5.74658C28.0935 5.90658 27.8802 5.98658 27.6668 5.98658C27.4535 5.98658 27.2402 5.90658 27.0802 5.74658L26.8402 5.50659V8.49325C26.8402 8.95992 26.4668 9.33325 26.0002 9.33325C25.5335 9.33325 25.1602 8.95992 25.1602 8.49325V5.50659L24.9202 5.74658C24.6002 6.06659 24.0668 6.06659 23.7468 5.74658C23.4268 5.42659 23.4268 4.89325 23.7468 4.57325L25.4135 2.90659C25.4802 2.83992 25.5735 2.78659 25.6668 2.74659C25.6935 2.73325 25.7202 2.73325 25.7468 2.71992C25.8135 2.69325 25.8802 2.67992 25.9602 2.67992C25.9868 2.67992 26.0135 2.67992 26.0402 2.67992C26.1335 2.67992 26.2135 2.69325 26.3068 2.73325C26.3202 2.73325 26.3202 2.73325 26.3335 2.73325C26.4268 2.77325 26.5068 2.82659 26.5735 2.89325C26.5868 2.90659 26.5868 2.90659 26.6002 2.90659L28.2668 4.57325C28.5868 4.89325 28.5868 5.42659 28.2535 5.74658Z" fill="#FF7020"/>
<path opacity="0.4" d="M29.3332 10.3601V12.0001H2.6665V10.0534C2.6665 7.00011 5.1465 4.53345 8.19984 4.53345H21.3332V7.96011C21.3332 9.65345 22.3465 10.6668 24.0398 10.6668H27.9598C28.4932 10.6668 28.9465 10.5734 29.3332 10.3601Z" fill="#FF7020"/>
<path d="M2.6665 12V21.9467C2.6665 25 5.1465 27.4667 8.19984 27.4667H23.7998C26.8532 27.4667 29.3332 25 29.3332 21.9467V12H2.6665ZM10.6665 23H7.99984C7.45317 23 6.99984 22.5467 6.99984 22C6.99984 21.4533 7.45317 21 7.99984 21H10.6665C11.2132 21 11.6665 21.4533 11.6665 22C11.6665 22.5467 11.2132 23 10.6665 23ZM19.3332 23H13.9998C13.4532 23 12.9998 22.5467 12.9998 22C12.9998 21.4533 13.4532 21 13.9998 21H19.3332C19.8798 21 20.3332 21.4533 20.3332 22C20.3332 22.5467 19.8798 23 19.3332 23Z" fill="#FF7020"/>
</svg>
