<svg width="32" height="32" viewBox="0 0 32 32" fill="none" xmlns="http://www.w3.org/2000/svg">
<path opacity="0.4" d="M29.3332 10.3601V12.0001H2.6665V10.0534C2.6665 7.00011 5.1465 4.53345 8.19984 4.53345H21.3332V7.96011C21.3332 9.65345 22.3465 10.6668 24.0398 10.6668H27.9598C28.4932 10.6668 28.9465 10.5734 29.3332 10.3601Z" fill="#00A48A"/>
<path d="M2.6665 12V21.9467C2.6665 25 5.1465 27.4667 8.19984 27.4667H23.7998C26.8532 27.4667 29.3332 25 29.3332 21.9467V12H2.6665ZM10.6665 23H7.99984C7.45317 23 6.99984 22.5467 6.99984 22C6.99984 21.4533 7.45317 21 7.99984 21H10.6665C11.2132 21 11.6665 21.4533 11.6665 22C11.6665 22.5467 11.2132 23 10.6665 23ZM19.3332 23H13.9998C13.4532 23 12.9998 22.5467 12.9998 22C12.9998 21.4533 13.4532 21 13.9998 21H19.3332C19.8798 21 20.3332 21.4533 20.3332 22C20.3332 22.5467 19.8798 23 19.3332 23Z" fill="#00A48A"/>
<path d="M27.9602 1.33325H24.0402C22.3468 1.33325 21.3335 2.34659 21.3335 4.03992V7.95992C21.3335 9.65325 22.3468 10.6666 24.0402 10.6666H27.9602C29.6535 10.6666 30.6668 9.65325 30.6668 7.95992V4.03992C30.6668 2.34659 29.6535 1.33325 27.9602 1.33325ZM28.8402 4.59992L25.6802 8.29325C25.5602 8.43992 25.3735 8.53325 25.1868 8.53325C25.1735 8.53325 25.1735 8.53325 25.1602 8.53325C24.9735 8.53325 24.8002 8.46658 24.6668 8.33325L23.2002 6.89325C22.9335 6.62659 22.9335 6.18658 23.2002 5.91992C23.4668 5.65325 23.9068 5.63992 24.1735 5.91992L25.1068 6.83992L27.7735 3.71992C28.0268 3.42659 28.4535 3.39992 28.7468 3.63992C29.0535 3.87992 29.0802 4.31992 28.8402 4.59992Z" fill="#00A48A"/>
</svg>
