<svg width="36" height="36" viewBox="0 0 36 36" fill="none" xmlns="http://www.w3.org/2000/svg">
<path opacity="0.6" d="M9.31543 10.3906H20.3701C23.2978 10.3907 25.6846 12.7784 25.6846 15.7061V17.001H4V15.7061C4 12.7783 6.38771 10.3906 9.31543 10.3906Z" fill="#1053D5" stroke="#1053D5" stroke-width="2"/>
<path opacity="0.4" d="M25.6846 19V26.6846C25.6846 29.6122 23.2978 31.9999 20.3701 32H9.31543C6.38771 32 4 29.6123 4 26.6846V19H25.6846Z" fill="#1053D5" stroke="#1053D5" stroke-width="2"/>
<path d="M8.25 7.67969C7.635 7.67969 7.125 7.16969 7.125 6.55469V3.92969C7.125 3.31469 7.635 2.80469 8.25 2.80469C8.865 2.80469 9.375 3.31469 9.375 3.92969V6.55469C9.375 7.18469 8.865 7.67969 8.25 7.67969Z" fill="#1053D5"/>
<path d="M14.25 7.67969C13.635 7.67969 13.125 7.16969 13.125 6.55469V3.92969C13.125 3.31469 13.635 2.80469 14.25 2.80469C14.865 2.80469 15.375 3.31469 15.375 3.92969V6.55469C15.375 7.18469 14.865 7.67969 14.25 7.67969Z" fill="#1053D5"/>
<path d="M20.25 7.67969C19.635 7.67969 19.125 7.16969 19.125 6.55469V3.92969C19.125 3.31469 19.635 2.80469 20.25 2.80469C20.865 2.80469 21.375 3.31469 21.375 3.92969V6.55469C21.375 7.18469 20.865 7.67969 20.25 7.67969Z" fill="#1053D5"/>
<path d="M32.475 21.4809C32.475 24.7059 29.865 27.3159 26.64 27.3159V15.6309C29.85 15.6309 32.475 18.2559 32.475 21.4809Z" fill="#1053D5"/>
</svg>
