<svg width="48" height="48" viewBox="0 0 48 48" fill="none" xmlns="http://www.w3.org/2000/svg">
<path opacity="0.4" d="M12 5H32C35.2071 5 36.8114 5.42465 37.6934 6.30664C38.5754 7.18863 39 8.79285 39 12V14.4971C38.7734 14.4869 38.5393 14.4805 38.2998 14.4805H29.7402C27.5461 14.4805 25.7651 14.8308 24.5781 16.0176C23.3912 17.2045 23.0401 18.9855 23.04 21.1797V30.4004H18.5V39.5H23.085C23.1119 39.8486 23.1528 40.1817 23.207 40.5H9.90039C9.63268 40.5 9.40039 40.2677 9.40039 40C9.40039 39.7323 9.63268 39.5 9.90039 39.5H17.5V30.4004H12C8.86612 30.4004 7.25791 29.9921 6.36133 29.1455C5.5358 28.366 5.08816 26.9949 5.01074 24.3389L5 23.79V12C5 8.79285 5.42465 7.18863 6.30664 6.30664C7.18863 5.42465 8.79285 5 12 5Z" fill="#1053D5" stroke="#1053D5" stroke-width="2"/>
<path d="M40.0001 15.58C39.5001 15.52 38.92 15.48 38.3 15.48H29.7401C25.4601 15.48 24.04 16.9001 24.04 21.1801V38.5C24.06 39.74 24.2001 40.72 24.5001 41.5C25.2001 43.32 26.7801 44 29.7401 44H38.3C42.58 44 44.0001 42.58 44.0001 38.3V21.1801C44.0001 17.5201 42.9601 15.96 40.0001 15.58ZM34.0201 20.1801C35.7601 20.1801 37.16 21.5799 37.16 23.3199C37.16 25.0599 35.7601 26.46 34.0201 26.46C32.2801 26.46 30.8801 25.0599 30.8801 23.3199C30.8801 21.5799 32.2801 20.1801 34.0201 20.1801ZM34.0201 38.3C31.6601 38.3 29.7401 36.38 29.7401 34.02C29.7401 33.04 30.0801 32.12 30.6401 31.4C31.4201 30.4 32.6401 29.74 34.0201 29.74C35.1001 29.74 36.0801 30.14 36.8201 30.78C37.7201 31.58 38.3 32.74 38.3 34.02C38.3 36.38 36.3801 38.3 34.0201 38.3Z" fill="#1053D5"/>
<path opacity="0.4" d="M38.3002 34.02C38.3002 36.38 36.3803 38.3 34.0203 38.3C31.6603 38.3 29.7402 36.38 29.7402 34.02C29.7402 33.04 30.0803 32.12 30.6403 31.4C31.4203 30.4 32.6403 29.74 34.0203 29.74C35.1003 29.74 36.0803 30.14 36.8203 30.78C37.7203 31.58 38.3002 32.74 38.3002 34.02Z" fill="#1053D5"/>
<path opacity="0.4" d="M34.0199 26.4601C35.7541 26.4601 37.1599 25.0542 37.1599 23.3201C37.1599 21.5859 35.7541 20.1802 34.0199 20.1802C32.2857 20.1802 30.8799 21.5859 30.8799 23.3201C30.8799 25.0542 32.2857 26.4601 34.0199 26.4601Z" fill="#1053D5"/>
</svg>
