<svg width="25" height="24" viewBox="0 0 25 24" fill="none" xmlns="http://www.w3.org/2000/svg">
<path d="M16.3333 2H8.33325C4.83325 2 3.33325 4 3.33325 7V17C3.33325 20 4.83325 22 8.33325 22H16.3333C19.8333 22 21.3333 20 21.3333 17V7C21.3333 4 19.8333 2 16.3333 2ZM8.33325 12.25H12.3333C12.7433 12.25 13.0833 12.59 13.0833 13C13.0833 13.41 12.7433 13.75 12.3333 13.75H8.33325C7.92325 13.75 7.58325 13.41 7.58325 13C7.58325 12.59 7.92325 12.25 8.33325 12.25ZM16.3333 17.75H8.33325C7.92325 17.75 7.58325 17.41 7.58325 17C7.58325 16.59 7.92325 16.25 8.33325 16.25H16.3333C16.7433 16.25 17.0833 16.59 17.0833 17C17.0833 17.41 16.7433 17.75 16.3333 17.75ZM18.8333 9.25H16.8333C15.3133 9.25 14.0833 8.02 14.0833 6.5V4.5C14.0833 4.09 14.4233 3.75 14.8333 3.75C15.2433 3.75 15.5833 4.09 15.5833 4.5V6.5C15.5833 7.19 16.1433 7.75 16.8333 7.75H18.8333C19.2433 7.75 19.5833 8.09 19.5833 8.5C19.5833 8.91 19.2433 9.25 18.8333 9.25Z" fill="#1053D5"/>
</svg>
