<svg width="16" height="16" viewBox="0 0 16 16" fill="none" xmlns="http://www.w3.org/2000/svg">
<path d="M7.33337 1.33301H6.00004C2.66671 1.33301 1.33337 2.66634 1.33337 5.99967V9.99967C1.33337 13.333 2.66671 14.6663 6.00004 14.6663H10C13.3334 14.6663 14.6667 13.333 14.6667 9.99967V8.66634" stroke="#292D32" stroke-width="1.5" stroke-linecap="round" stroke-linejoin="round"/>
<path d="M10.6934 2.0135L5.44004 7.26684C5.24004 7.46684 5.04004 7.86017 5.00004 8.14684L4.71337 10.1535C4.60671 10.8802 5.12004 11.3868 5.84671 11.2868L7.85337 11.0002C8.13337 10.9602 8.52671 10.7602 8.73338 10.5602L13.9867 5.30684C14.8934 4.40017 15.32 3.34684 13.9867 2.0135C12.6534 0.680168 11.6 1.10684 10.6934 2.0135Z" stroke="#292D32" stroke-width="1.5" stroke-miterlimit="10" stroke-linecap="round" stroke-linejoin="round"/>
<path d="M9.93994 2.7666C10.3866 4.35993 11.6333 5.6066 13.2333 6.05993" stroke="#292D32" stroke-width="1.5" stroke-miterlimit="10" stroke-linecap="round" stroke-linejoin="round"/>
</svg>
