<svg width="21" height="20" viewBox="0 0 21 20" fill="none" xmlns="http://www.w3.org/2000/svg">
<path d="M12.6083 7.89172L8.3916 12.1084C7.84994 11.5667 7.5166 10.8251 7.5166 10.0001C7.5166 8.35006 8.84993 7.01672 10.4999 7.01672C11.3249 7.01672 12.0666 7.35006 12.6083 7.89172Z" stroke="white" stroke-width="2" stroke-linecap="round" stroke-linejoin="round"/>
<path d="M15.3499 4.80828C13.8915 3.70828 12.2249 3.10828 10.4999 3.10828C7.5582 3.10828 4.81654 4.84161 2.9082 7.84161C2.1582 9.01661 2.1582 10.9916 2.9082 12.1666C3.56654 13.1999 4.3332 14.0916 5.16654 14.8083" stroke="white" stroke-width="2" stroke-linecap="round" stroke-linejoin="round"/>
<path d="M7.5166 16.2749C8.4666 16.6749 9.47493 16.8916 10.4999 16.8916C13.4416 16.8916 16.1833 15.1583 18.0916 12.1583C18.8416 10.9833 18.8416 9.00828 18.0916 7.83328C17.8166 7.39994 17.5166 6.99161 17.2083 6.60828" stroke="white" stroke-width="2" stroke-linecap="round" stroke-linejoin="round"/>
<path d="M13.4252 10.5834C13.2085 11.7584 12.2502 12.7167 11.0752 12.9334" stroke="white" stroke-width="2" stroke-linecap="round" stroke-linejoin="round"/>
<path d="M8.3915 12.1083L2.1665 18.3333" stroke="white" stroke-width="2" stroke-linecap="round" stroke-linejoin="round"/>
<path d="M18.8334 1.66663L12.6084 7.89163" stroke="white" stroke-width="2" stroke-linecap="round" stroke-linejoin="round"/>
</svg>
