<svg width="100" height="100" viewBox="0 0 100 100" fill="none" xmlns="http://www.w3.org/2000/svg">
<mask id="mask0_317_8601" style="mask-type:alpha" maskUnits="userSpaceOnUse" x="0" y="0" width="100" height="100">
<rect width="100" height="100" rx="16" fill="#D9D9D9"/>
</mask>
<g mask="url(#mask0_317_8601)">
<rect width="100" height="100" fill="#F6F7F9"/>
<path d="M47 37C48.1046 37 49 36.1046 49 35C49 33.8954 48.1046 33 47 33C45.8954 33 45 33.8954 45 35C45 36.1046 45.8954 37 47 37Z" stroke="#6A7686" stroke-width="2" stroke-linecap="round" stroke-linejoin="round"/>
<path d="M51 29H47C42 29 40 31 40 36V42C40 47 42 49 47 49H53C58 49 60 47 60 42V37" stroke="#6A7686" stroke-width="2" stroke-linecap="round" stroke-linejoin="round"/>
<path d="M53.75 32H59.25" stroke="#6A7686" stroke-width="2" stroke-linecap="round"/>
<path d="M56.5 34.75V29.25" stroke="#6A7686" stroke-width="2" stroke-linecap="round"/>
<path d="M40.67 45.9496L45.6 42.6396C46.39 42.1096 47.53 42.1696 48.24 42.7796L48.57 43.0696C49.35 43.7396 50.61 43.7396 51.39 43.0696L55.55 39.4996C56.33 38.8296 57.59 38.8296 58.37 39.4996L60 40.8996" stroke="#6A7686" stroke-width="2" stroke-linecap="round" stroke-linejoin="round"/>
<path d="M17.988 71L21.312 62.6H23.04L26.34 71H24.276L22.692 66.74C22.628 66.572 22.564 66.392 22.5 66.2C22.436 66.008 22.372 65.812 22.308 65.612C22.244 65.404 22.18 65.204 22.116 65.012C22.06 64.812 22.012 64.628 21.972 64.46L22.332 64.448C22.284 64.648 22.228 64.844 22.164 65.036C22.108 65.228 22.048 65.42 21.984 65.612C21.928 65.796 21.864 65.984 21.792 66.176C21.72 66.36 21.652 66.552 21.588 66.752L20.004 71H17.988ZM19.572 69.392L20.208 67.856H24.072L24.696 69.392H19.572ZM29.3617 71.132C28.8097 71.132 28.3177 70.992 27.8857 70.712C27.4617 70.424 27.1257 70.032 26.8777 69.536C26.6297 69.032 26.5057 68.46 26.5057 67.82C26.5057 67.18 26.6297 66.612 26.8777 66.116C27.1257 65.612 27.4657 65.216 27.8977 64.928C28.3297 64.64 28.8257 64.496 29.3857 64.496C29.6737 64.496 29.9497 64.54 30.2137 64.628C30.4777 64.716 30.7177 64.836 30.9337 64.988C31.1497 65.14 31.3257 65.316 31.4617 65.516C31.5977 65.708 31.6777 65.908 31.7017 66.116L31.2457 66.224V62.12H33.1777V71H31.3897L31.2817 69.548L31.6657 69.608C31.6417 69.808 31.5617 70 31.4257 70.184C31.2977 70.368 31.1297 70.532 30.9217 70.676C30.7137 70.812 30.4737 70.92 30.2017 71C29.9377 71.088 29.6577 71.132 29.3617 71.132ZM29.8537 69.536C30.1497 69.536 30.4057 69.464 30.6217 69.32C30.8377 69.176 31.0017 68.976 31.1137 68.72C31.2337 68.464 31.2937 68.164 31.2937 67.82C31.2937 67.468 31.2337 67.164 31.1137 66.908C31.0017 66.652 30.8377 66.452 30.6217 66.308C30.4057 66.164 30.1497 66.092 29.8537 66.092C29.5577 66.092 29.3017 66.164 29.0857 66.308C28.8777 66.452 28.7137 66.652 28.5937 66.908C28.4737 67.164 28.4137 67.468 28.4137 67.82C28.4137 68.164 28.4737 68.464 28.5937 68.72C28.7137 68.976 28.8777 69.176 29.0857 69.32C29.3017 69.464 29.5577 69.536 29.8537 69.536ZM37.2132 71.132C36.6612 71.132 36.1692 70.992 35.7372 70.712C35.3132 70.424 34.9772 70.032 34.7292 69.536C34.4812 69.032 34.3572 68.46 34.3572 67.82C34.3572 67.18 34.4812 66.612 34.7292 66.116C34.9772 65.612 35.3172 65.216 35.7492 64.928C36.1812 64.64 36.6772 64.496 37.2372 64.496C37.5252 64.496 37.8012 64.54 38.0652 64.628C38.3292 64.716 38.5692 64.836 38.7852 64.988C39.0012 65.14 39.1772 65.316 39.3132 65.516C39.4492 65.708 39.5292 65.908 39.5532 66.116L39.0972 66.224V62.12H41.0292V71H39.2412L39.1332 69.548L39.5172 69.608C39.4932 69.808 39.4132 70 39.2772 70.184C39.1492 70.368 38.9812 70.532 38.7732 70.676C38.5652 70.812 38.3252 70.92 38.0532 71C37.7892 71.088 37.5092 71.132 37.2132 71.132ZM37.7052 69.536C38.0012 69.536 38.2572 69.464 38.4732 69.32C38.6892 69.176 38.8532 68.976 38.9652 68.72C39.0852 68.464 39.1452 68.164 39.1452 67.82C39.1452 67.468 39.0852 67.164 38.9652 66.908C38.8532 66.652 38.6892 66.452 38.4732 66.308C38.2572 66.164 38.0012 66.092 37.7052 66.092C37.4092 66.092 37.1532 66.164 36.9372 66.308C36.7292 66.452 36.5652 66.652 36.4452 66.908C36.3252 67.164 36.2652 67.468 36.2652 67.82C36.2652 68.164 36.3252 68.464 36.4452 68.72C36.5652 68.976 36.7292 69.176 36.9372 69.32C37.1532 69.464 37.4092 69.536 37.7052 69.536ZM46.7005 71V62.6H50.3245C50.8525 62.6 51.3205 62.72 51.7285 62.96C52.1445 63.2 52.4725 63.528 52.7125 63.944C52.9605 64.36 53.0845 64.828 53.0845 65.348C53.0845 65.892 52.9605 66.38 52.7125 66.812C52.4725 67.236 52.1445 67.572 51.7285 67.82C51.3205 68.068 50.8525 68.192 50.3245 68.192H48.7405V71H46.7005ZM48.7045 66.404H50.0365C50.2125 66.404 50.3725 66.36 50.5165 66.272C50.6605 66.184 50.7765 66.064 50.8645 65.912C50.9525 65.76 50.9965 65.584 50.9965 65.384C50.9965 65.176 50.9525 65 50.8645 64.856C50.7765 64.712 50.6605 64.6 50.5165 64.52C50.3725 64.44 50.2125 64.4 50.0365 64.4H48.7045V66.404ZM54.4418 71V62.12H56.3258V65.924L55.9418 66.068C56.0298 65.78 56.1858 65.52 56.4098 65.288C56.6418 65.048 56.9178 64.856 57.2378 64.712C57.5578 64.568 57.8938 64.496 58.2458 64.496C58.7258 64.496 59.1298 64.596 59.4578 64.796C59.7858 64.988 60.0338 65.28 60.2018 65.672C60.3698 66.056 60.4538 66.528 60.4538 67.088V71H58.5218V67.244C58.5218 66.988 58.4858 66.776 58.4138 66.608C58.3418 66.44 58.2298 66.316 58.0778 66.236C57.9338 66.148 57.7538 66.108 57.5378 66.116C57.3698 66.116 57.2138 66.144 57.0698 66.2C56.9258 66.248 56.8018 66.324 56.6978 66.428C56.5938 66.524 56.5098 66.636 56.4458 66.764C56.3898 66.892 56.3618 67.032 56.3618 67.184V71H55.4138C55.1898 71 54.9978 71 54.8378 71C54.6778 71 54.5458 71 54.4418 71ZM65.059 71.12C64.395 71.12 63.803 70.976 63.283 70.688C62.771 70.4 62.363 70.008 62.059 69.512C61.763 69.016 61.615 68.448 61.615 67.808C61.615 67.168 61.763 66.6 62.059 66.104C62.363 65.608 62.771 65.216 63.283 64.928C63.803 64.64 64.395 64.496 65.059 64.496C65.723 64.496 66.311 64.64 66.823 64.928C67.343 65.216 67.751 65.608 68.047 66.104C68.343 66.6 68.491 67.168 68.491 67.808C68.491 68.448 68.343 69.016 68.047 69.512C67.751 70.008 67.343 70.4 66.823 70.688C66.311 70.976 65.723 71.12 65.059 71.12ZM65.059 69.464C65.347 69.464 65.603 69.392 65.827 69.248C66.051 69.104 66.227 68.908 66.355 68.66C66.483 68.412 66.543 68.128 66.535 67.808C66.543 67.488 66.483 67.204 66.355 66.956C66.227 66.7 66.051 66.5 65.827 66.356C65.603 66.212 65.347 66.14 65.059 66.14C64.771 66.14 64.511 66.212 64.279 66.356C64.055 66.5 63.879 66.7 63.751 66.956C63.623 67.204 63.563 67.488 63.571 67.808C63.563 68.128 63.623 68.412 63.751 68.66C63.879 68.908 64.055 69.104 64.279 69.248C64.511 69.392 64.771 69.464 65.059 69.464ZM70.2745 71V63.02H72.1945V71H70.2745ZM69.1465 66.308V64.628H73.4305V66.308H69.1465ZM77.4692 71.12C76.8052 71.12 76.2132 70.976 75.6932 70.688C75.1812 70.4 74.7732 70.008 74.4692 69.512C74.1732 69.016 74.0252 68.448 74.0252 67.808C74.0252 67.168 74.1732 66.6 74.4692 66.104C74.7732 65.608 75.1812 65.216 75.6932 64.928C76.2132 64.64 76.8052 64.496 77.4692 64.496C78.1332 64.496 78.7212 64.64 79.2332 64.928C79.7532 65.216 80.1612 65.608 80.4572 66.104C80.7532 66.6 80.9012 67.168 80.9012 67.808C80.9012 68.448 80.7532 69.016 80.4572 69.512C80.1612 70.008 79.7532 70.4 79.2332 70.688C78.7212 70.976 78.1332 71.12 77.4692 71.12ZM77.4692 69.464C77.7572 69.464 78.0132 69.392 78.2372 69.248C78.4612 69.104 78.6372 68.908 78.7652 68.66C78.8932 68.412 78.9532 68.128 78.9452 67.808C78.9532 67.488 78.8932 67.204 78.7652 66.956C78.6372 66.7 78.4612 66.5 78.2372 66.356C78.0132 66.212 77.7572 66.14 77.4692 66.14C77.1812 66.14 76.9212 66.212 76.6892 66.356C76.4652 66.5 76.2892 66.7 76.1612 66.956C76.0332 67.204 75.9732 67.488 75.9812 67.808C75.9732 68.128 76.0332 68.412 76.1612 68.66C76.2892 68.908 76.4652 69.104 76.6892 69.248C76.9212 69.392 77.1812 69.464 77.4692 69.464Z" fill="#6A7686"/>
</g>
</svg>
