<svg width="30" height="30" viewBox="0 0 30 30" fill="none" xmlns="http://www.w3.org/2000/svg">
<path d="M10.2 27.5C4.97498 27.5 3.92498 24.3375 5.62498 20.4875L10.9375 8.425H10.5625C9.74998 8.425 8.99998 8.1 8.46248 7.5625C7.91248 7.025 7.58748 6.275 7.58748 5.4625C7.58748 3.8375 8.91248 2.5 10.55 2.5H19.4375C20.2625 2.5 21 2.8375 21.5375 3.375C22.2375 4.075 22.5875 5.1 22.325 6.1875C21.9875 7.5375 20.6875 8.425 19.3 8.425H19.1L24.375 20.5C26.0625 24.35 24.9625 27.5 19.7875 27.5H10.2Z" stroke="#292D32" stroke-width="2.5" stroke-linecap="round" stroke-linejoin="round"/>
<path d="M7.42505 16.4C7.42505 16.4 11.25 16.25 15 17.5C18.75 18.75 22.2875 16.3875 22.2875 16.3875" stroke="#292D32" stroke-width="2.5" stroke-linecap="round" stroke-linejoin="round"/>
</svg>
