<svg width="24" height="25" viewBox="0 0 24 25" fill="none" xmlns="http://www.w3.org/2000/svg">
<path d="M19.7897 15.4298C17.7297 17.4798 14.7797 18.1098 12.1897 17.2998L7.47966 21.9998C7.13966 22.3498 6.46966 22.5598 5.98966 22.4898L3.80966 22.1898C3.08966 22.0898 2.41966 21.4098 2.30966 20.6898L2.00966 18.5098C1.93966 18.0298 2.16966 17.3598 2.49966 17.0198L7.19966 12.3198C6.39966 9.71982 7.01966 6.76982 9.07966 4.71982C12.0297 1.76982 16.8197 1.76982 19.7797 4.71982C22.7397 7.66982 22.7397 12.4798 19.7897 15.4298Z" stroke="#6A7686" stroke-width="2" stroke-miterlimit="10" stroke-linecap="round" stroke-linejoin="round"/>
<path d="M6.88965 17.9902L9.18965 20.2902" stroke="#6A7686" stroke-width="2" stroke-miterlimit="10" stroke-linecap="round" stroke-linejoin="round"/>
<path d="M14.5 11.5C15.3284 11.5 16 10.8284 16 10C16 9.17157 15.3284 8.5 14.5 8.5C13.6716 8.5 13 9.17157 13 10C13 10.8284 13.6716 11.5 14.5 11.5Z" stroke="#6A7686" stroke-width="2" stroke-linecap="round" stroke-linejoin="round"/>
</svg>
