<svg width="36" height="36" viewBox="0 0 36 36" fill="none" xmlns="http://www.w3.org/2000/svg">
<path opacity="0.4" d="M17.91 9.18945H18.0917C24.7659 9.17561 30.1698 14.5899 30.1698 21.2695V25.6797C30.1697 26.7773 29.2674 27.6797 28.1698 27.6797H7.82996C6.73231 27.6797 5.83007 26.7773 5.82996 25.6797V21.2695C5.82996 14.5918 11.2323 9.18945 17.91 9.18945Z" fill="#1053D5" stroke="#1053D5" stroke-width="2"/>
<path d="M19.125 3.79492V8.23492C18.78 8.20492 18.435 8.18992 18.09 8.18992H17.91C17.565 8.18992 17.22 8.20492 16.875 8.23492V3.79492C16.875 3.17992 17.385 2.66992 18 2.66992C18.615 2.66992 19.125 3.17992 19.125 3.79492Z" fill="#1053D5"/>
<path d="M22.98 28.6641C22.8 31.2741 20.64 33.3291 18 33.3291C15.36 33.3291 13.185 31.2741 13.02 28.6641H22.98Z" fill="#1053D5"/>
</svg>
