<svg width="24" height="24" viewBox="0 0 24 24" fill="none" xmlns="http://www.w3.org/2000/svg">
<mask id="path-1-inside-1_425_18568" fill="white">
<path d="M19.0698 14.2396C18.7798 14.5296 18.3198 14.5296 18.0398 14.2396C17.7498 13.9496 17.7498 13.4896 18.0398 13.2096C20.0398 11.2096 20.0398 7.95961 18.0398 5.96961C16.0398 3.97961 12.7898 3.96961 10.7998 5.96961C8.80978 7.96961 8.79978 11.2196 10.7998 13.2096C11.0898 13.4996 11.0898 13.9596 10.7998 14.2396C10.5098 14.5296 10.0498 14.5296 9.76979 14.2396C7.19979 11.6696 7.19979 7.48961 9.76979 4.92961C12.3398 2.36961 16.5198 2.35961 19.0798 4.92961C21.6398 7.49961 21.6398 11.6696 19.0698 14.2396Z"/>
</mask>
<path d="M19.0698 14.2396C18.7798 14.5296 18.3198 14.5296 18.0398 14.2396C17.7498 13.9496 17.7498 13.4896 18.0398 13.2096C20.0398 11.2096 20.0398 7.95961 18.0398 5.96961C16.0398 3.97961 12.7898 3.96961 10.7998 5.96961C8.80978 7.96961 8.79978 11.2196 10.7998 13.2096C11.0898 13.4996 11.0898 13.9596 10.7998 14.2396C10.5098 14.5296 10.0498 14.5296 9.76979 14.2396C7.19979 11.6696 7.19979 7.48961 9.76979 4.92961C12.3398 2.36961 16.5198 2.35961 19.0798 4.92961C21.6398 7.49961 21.6398 11.6696 19.0698 14.2396Z" fill="#292D32"/>
<path d="M18.0398 14.2396L19.4786 12.8504L19.4664 12.8378L19.454 12.8254L18.0398 14.2396ZM18.0398 13.2096L19.429 14.6484L19.4416 14.6362L19.454 14.6238L18.0398 13.2096ZM10.7998 13.2096L12.214 11.7954L12.2104 11.7919L10.7998 13.2096ZM10.7998 14.2396L9.4106 12.8008L9.39798 12.813L9.38557 12.8254L10.7998 14.2396ZM9.76979 14.2396L11.2086 12.8504L11.1964 12.8378L11.184 12.8254L9.76979 14.2396ZM19.0698 14.2396L17.6556 12.8254C18.1326 12.3483 18.9587 12.312 19.4786 12.8504L18.0398 14.2396L16.601 15.6288C17.6808 16.7472 19.4269 16.7109 20.484 15.6538L19.0698 14.2396ZM18.0398 14.2396L19.454 12.8254C19.9311 13.3025 19.9674 14.1286 19.429 14.6484L18.0398 13.2096L16.6506 11.7708C15.5322 12.8506 15.5685 14.5968 16.6256 15.6538L18.0398 14.2396ZM18.0398 13.2096L19.454 14.6238C22.2331 11.8447 22.2382 7.32566 19.4504 4.55186L18.0398 5.96961L16.6291 7.38736C17.8414 8.59356 17.8465 10.5745 16.6256 11.7954L18.0398 13.2096ZM18.0398 5.96961L19.4504 4.55186C16.6767 1.79199 12.1603 1.76671 9.38203 4.55895L10.7998 5.96961L12.2175 7.38028C13.4193 6.17251 15.4029 6.16724 16.6291 7.38736L18.0398 5.96961ZM10.7998 5.96961L9.38203 4.55895C6.62216 7.33269 6.59688 11.8491 9.38912 14.6274L10.7998 13.2096L12.2104 11.7919C11.0027 10.5901 10.9974 8.60654 12.2175 7.38028L10.7998 5.96961ZM10.7998 13.2096L9.38557 14.6238C8.90852 14.1468 8.87219 13.3206 9.4106 12.8008L10.7998 14.2396L12.189 15.6784C13.3074 14.5986 13.2711 12.8525 12.214 11.7954L10.7998 13.2096ZM10.7998 14.2396L9.38557 12.8254C9.86263 12.3483 10.6887 12.312 11.2086 12.8504L9.76979 14.2396L8.33098 15.6288C9.41082 16.7472 11.1569 16.7109 12.214 15.6538L10.7998 14.2396ZM9.76979 14.2396L11.184 12.8254C9.39352 11.0349 9.39749 8.12338 11.1812 6.34658L9.76979 4.92961L8.35833 3.51264C5.00208 6.85584 5.00605 12.3043 8.35557 15.6538L9.76979 14.2396ZM9.76979 4.92961L11.1812 6.34658C12.9759 4.55893 15.8895 4.56081 17.6628 6.34107L19.0798 4.92961L20.4968 3.51816C17.1501 0.158408 11.7037 0.18029 8.35833 3.51264L9.76979 4.92961ZM19.0798 4.92961L17.6628 6.34107C19.445 8.1302 19.445 11.036 17.6556 12.8254L19.0698 14.2396L20.484 15.6538C23.8346 12.3032 23.8346 6.86903 20.4968 3.51816L19.0798 4.92961Z" fill="#6A7686" mask="url(#path-1-inside-1_425_18568)"/>
<mask id="path-3-inside-2_425_18568" fill="white">
<path d="M4.93022 9.76047C5.22022 9.47047 5.68022 9.47047 5.96022 9.76047C6.25022 10.0505 6.25022 10.5105 5.96022 10.7905C3.96022 12.7905 3.96022 16.0405 5.96022 18.0305C7.96022 20.0205 11.2102 20.0305 13.2002 18.0305C15.1902 16.0305 15.2002 12.7805 13.2002 10.7905C12.9102 10.5005 12.9102 10.0405 13.2002 9.76047C13.4902 9.47047 13.9502 9.47047 14.2302 9.76047C16.8002 12.3305 16.8002 16.5105 14.2302 19.0705C11.6602 21.6305 7.48022 21.6405 4.92022 19.0705C2.36022 16.5005 2.36022 12.3305 4.93022 9.76047Z"/>
</mask>
<path d="M4.93022 9.76047C5.22022 9.47047 5.68022 9.47047 5.96022 9.76047C6.25022 10.0505 6.25022 10.5105 5.96022 10.7905C3.96022 12.7905 3.96022 16.0405 5.96022 18.0305C7.96022 20.0205 11.2102 20.0305 13.2002 18.0305C15.1902 16.0305 15.2002 12.7805 13.2002 10.7905C12.9102 10.5005 12.9102 10.0405 13.2002 9.76047C13.4902 9.47047 13.9502 9.47047 14.2302 9.76047C16.8002 12.3305 16.8002 16.5105 14.2302 19.0705C11.6602 21.6305 7.48022 21.6405 4.92022 19.0705C2.36022 16.5005 2.36022 12.3305 4.93022 9.76047Z" fill="#292D32"/>
<path d="M5.96022 9.76047L4.52141 11.1497L4.5336 11.1623L4.546 11.1747L5.96022 9.76047ZM5.96022 10.7905L4.57103 9.35167L4.55841 9.36385L4.546 9.37625L5.96022 10.7905ZM13.2002 10.7905L11.786 12.2047L11.7896 12.2082L13.2002 10.7905ZM13.2002 9.76047L14.5894 11.1993L14.602 11.1871L14.6144 11.1747L13.2002 9.76047ZM14.2302 9.76047L12.7914 11.1497L12.8036 11.1623L12.816 11.1747L14.2302 9.76047ZM4.93022 9.76047L6.34443 11.1747C5.86737 11.6517 5.04126 11.6881 4.52141 11.1497L5.96022 9.76047L7.39902 8.37128C6.31918 7.25287 4.57306 7.2892 3.516 8.34626L4.93022 9.76047ZM5.96022 9.76047L4.546 11.1747C4.06895 10.6976 4.03262 9.87151 4.57103 9.35167L5.96022 10.7905L7.34941 12.2293C8.46781 11.1494 8.43149 9.40331 7.37443 8.34626L5.96022 9.76047ZM5.96022 10.7905L4.546 9.37625C1.76692 12.1553 1.76181 16.6744 4.54955 19.4482L5.96022 18.0305L7.37088 16.6127C6.15863 15.4065 6.15352 13.4256 7.37443 12.2047L5.96022 10.7905ZM5.96022 18.0305L4.54955 19.4482C7.32329 22.2081 11.8397 22.2334 14.618 19.4411L13.2002 18.0305L11.7825 16.6198C10.5807 17.8276 8.59714 17.8328 7.37088 16.6127L5.96022 18.0305ZM13.2002 18.0305L14.618 19.4411C17.3778 16.6674 17.4031 12.151 14.6109 9.37271L13.2002 10.7905L11.7896 12.2082C12.9973 13.4099 13.0026 15.3935 11.7825 16.6198L13.2002 18.0305ZM13.2002 10.7905L14.6144 9.37625C15.0915 9.85331 15.1278 10.6794 14.5894 11.1993L13.2002 9.76047L11.811 8.32167C10.6926 9.40151 10.7289 11.1476 11.786 12.2047L13.2002 10.7905ZM13.2002 9.76047L14.6144 11.1747C14.1374 11.6517 13.3113 11.6881 12.7914 11.1497L14.2302 9.76047L15.669 8.37128C14.5892 7.25287 12.8431 7.2892 11.786 8.34626L13.2002 9.76047ZM14.2302 9.76047L12.816 11.1747C14.6065 12.9652 14.6025 15.8767 12.8188 17.6535L14.2302 19.0705L15.6417 20.4874C18.9979 17.1442 18.994 11.6958 15.6444 8.34626L14.2302 9.76047ZM14.2302 19.0705L12.8188 17.6535C11.0241 19.4411 8.11051 19.4393 6.33718 17.659L4.92022 19.0705L3.50325 20.4819C6.84993 23.8417 12.2963 23.8198 15.6417 20.4874L14.2302 19.0705ZM4.92022 19.0705L6.33718 17.659C4.55502 15.8699 4.55502 12.9641 6.34443 11.1747L4.93022 9.76047L3.516 8.34626C0.165411 11.6968 0.165418 17.1311 3.50325 20.4819L4.92022 19.0705Z" fill="#6A7686" mask="url(#path-3-inside-2_425_18568)"/>
</svg>
