<svg width="24" height="24" viewBox="0 0 24 24" fill="none" xmlns="http://www.w3.org/2000/svg">
<path d="M2.06987 6.76001L5.43986 20.29C5.67986 21.3 6.57986 22 7.61986 22H20.7599C22.2699 22 23.3499 20.5199 22.8999 19.0699L18.6899 5.55005C18.3999 4.61005 17.5298 3.95996 16.5498 3.95996H4.24986C3.29986 3.95996 2.50985 4.53997 2.17985 5.33997C1.98985 5.76997 1.94987 6.26001 2.06987 6.76001Z" stroke="#6A7686" stroke-width="2" stroke-miterlimit="10"/>
<path d="M8 22H3.22C1.93 22 0.92001 20.91 1.01001 19.62L2 6" stroke="#6A7686" stroke-width="2" stroke-miterlimit="10" stroke-linecap="round" stroke-linejoin="round"/>
<path d="M14.3198 6.38L13.2798 2.06006" stroke="#6A7686" stroke-width="2" stroke-miterlimit="10" stroke-linecap="round" stroke-linejoin="round"/>
<path d="M7.62012 6.39001L6.68011 2.05005" stroke="#6A7686" stroke-width="2" stroke-miterlimit="10" stroke-linecap="round" stroke-linejoin="round"/>
<path d="M16.2998 12H8.2998" stroke="#6A7686" stroke-width="2" stroke-miterlimit="10" stroke-linecap="round" stroke-linejoin="round"/>
<path d="M17.2998 16H9.2998" stroke="#6A7686" stroke-width="2" stroke-miterlimit="10" stroke-linecap="round" stroke-linejoin="round"/>
</svg>
