<svg width="30" height="30" viewBox="0 0 30 30" fill="none" xmlns="http://www.w3.org/2000/svg">
<path d="M22.5007 18.75V23.75C22.5007 25.8125 20.8132 27.5 18.7507 27.5H11.2507C9.18823 27.5 7.50073 25.8125 7.50073 23.75V17.475L12.3633 17.5C13.2758 17.5 14.1757 17.7125 15.0007 18.125C15.8257 18.5375 16.7257 18.75 17.6507 18.75H22.5007Z" stroke="#292D32" stroke-width="2.5" stroke-linecap="round" stroke-linejoin="round"/>
<path d="M22.5007 13.5375V18.75H17.6507C16.7257 18.75 15.8257 18.5375 15.0007 18.125C14.1757 17.7125 13.2758 17.5 12.3633 17.5L7.50073 17.475V13.5375C7.50073 12.9625 7.82577 12.175 8.23827 11.7625L10.8883 9.11249C11.1133 8.88749 11.2507 8.5625 11.2507 8.2375V6.25H18.7507V8.2375C18.7507 8.5625 18.8882 8.88749 19.1132 9.11249L21.7632 11.7625C22.1757 12.175 22.5007 12.9625 22.5007 13.5375Z" stroke="#292D32" stroke-width="2.5" stroke-linecap="round" stroke-linejoin="round"/>
<path d="M22.5005 20V18.75" stroke="#292D32" stroke-width="2.5" stroke-linecap="round" stroke-linejoin="round"/>
<path d="M7.50073 18.725V17.475" stroke="#292D32" stroke-width="2.5" stroke-linecap="round" stroke-linejoin="round"/>
<path d="M18.1243 6.25H11.8743C10.8368 6.25 9.99927 5.4 9.99927 4.375C9.99927 3.35 10.8368 2.5 11.8743 2.5H18.1243C19.1618 2.5 19.9993 3.35 19.9993 4.375C19.9993 5.4 19.1618 6.25 18.1243 6.25Z" stroke="#292D32" stroke-width="2.5" stroke-linecap="round" stroke-linejoin="round"/>
</svg>
