<svg width="48" height="48" viewBox="0 0 48 48" fill="none" xmlns="http://www.w3.org/2000/svg">
<path opacity="0.4" d="M15.5195 5H32.4805C35.1656 5.00006 36.6995 5.49669 37.5996 6.40625C38.5025 7.31892 39 8.88143 39 11.6201V36.3799C39 39.119 38.5025 40.6813 37.5977 41.5938C36.6952 42.5037 35.1561 43 32.46 43H15.5195C12.8344 42.9999 11.3005 42.5033 10.4004 41.5938C9.4975 40.6811 9 39.1186 9 36.3799V11.6201C9 8.88143 9.4975 7.31892 10.4004 6.40625C11.3005 5.49669 12.8344 5.00006 15.5195 5Z" fill="#1053D5" stroke="#1053D5" stroke-width="2"/>
<path d="M20 10.5H28C28.2677 10.5 28.5 10.7323 28.5 11C28.5 11.2677 28.2677 11.5 28 11.5H20C19.7323 11.5 19.5 11.2677 19.5 11C19.5 10.7323 19.7323 10.5 20 10.5Z" fill="#1053D5" stroke="#1053D5" stroke-width="2"/>
<path d="M24 38.6C25.933 38.6 27.5 37.033 27.5 35.1C27.5 33.167 25.933 31.6 24 31.6C22.067 31.6 20.5 33.167 20.5 35.1C20.5 37.033 22.067 38.6 24 38.6Z" fill="#1053D5"/>
</svg>
