<svg width="52" height="52" viewBox="0 0 52 52" fill="none" xmlns="http://www.w3.org/2000/svg">
<path opacity="0.4" d="M43.3337 17.8747V38.9997C43.3337 45.4997 39.4553 47.6663 34.667 47.6663H17.3337C12.5453 47.6663 8.66699 45.4997 8.66699 38.9997V17.8747C8.66699 10.833 12.5453 9.20801 17.3337 9.20801C17.3337 10.5513 17.8753 11.7647 18.7636 12.653C19.6519 13.5413 20.8653 14.083 22.2087 14.083H29.792C32.4787 14.083 34.667 11.8947 34.667 9.20801C39.4553 9.20801 43.3337 10.833 43.3337 17.8747Z" fill="#6A7686"/>
<path d="M34.6663 9.20801C34.6663 11.8947 32.478 14.083 29.7913 14.083H22.208C20.8647 14.083 19.6513 13.5413 18.7629 12.653C17.8746 11.7647 17.333 10.5513 17.333 9.20801C17.333 6.52134 19.5213 4.33301 22.208 4.33301H29.7913C31.1347 4.33301 32.3481 4.87468 33.2364 5.76302C34.1247 6.65135 34.6663 7.86467 34.6663 9.20801Z" fill="#6A7686"/>
<path d="M25.9997 29.792H17.333C16.4447 29.792 15.708 29.0553 15.708 28.167C15.708 27.2787 16.4447 26.542 17.333 26.542H25.9997C26.888 26.542 27.6247 27.2787 27.6247 28.167C27.6247 29.0553 26.888 29.792 25.9997 29.792Z" fill="#6A7686"/>
<path d="M34.6663 38.458H17.333C16.4447 38.458 15.708 37.7213 15.708 36.833C15.708 35.9447 16.4447 35.208 17.333 35.208H34.6663C35.5547 35.208 36.2913 35.9447 36.2913 36.833C36.2913 37.7213 35.5547 38.458 34.6663 38.458Z" fill="#6A7686"/>
</svg>
