<svg width="24" height="24" viewBox="0 0 24 24" fill="none" xmlns="http://www.w3.org/2000/svg">
<path d="M2.07006 4.6C2.87006 1.14 8.08006 1.14 8.87006 4.6C9.34006 6.63 8.05006 8.35 6.93006 9.42C6.11006 10.2 4.82006 10.19 4.00006 9.42C2.89006 8.35 1.60006 6.63 2.07006 4.6Z" stroke="#292D32" stroke-width="2"/>
<path d="M15.07 16.5999C15.87 13.1399 21.11 13.1399 21.91 16.5999C22.38 18.6299 21.09 20.3499 19.96 21.4199C19.14 22.1999 17.84 22.1899 17.02 21.4199C15.89 20.3499 14.6 18.6299 15.07 16.5999Z" stroke="#292D32" stroke-width="2"/>
<path d="M12.0002 5H14.6802C16.5302 5 17.3902 7.29 16.0002 8.51L8.01019 15.5C6.62019 16.71 7.48019 19 9.32019 19H12.0002" stroke="#292D32" stroke-width="2" stroke-linecap="round" stroke-linejoin="round"/>
<path d="M5.48622 5.5H5.49777" stroke="#292D32" stroke-width="2" stroke-linecap="round" stroke-linejoin="round"/>
<path d="M18.4862 17.5H18.4978" stroke="#292D32" stroke-width="2" stroke-linecap="round" stroke-linejoin="round"/>
</svg>
