<svg width="36" height="36" viewBox="0 0 36 36" fill="none" xmlns="http://www.w3.org/2000/svg">
<path d="M27.8102 6.18001L19.5602 3.09001C18.7052 2.77501 17.3102 2.77501 16.4552 3.09001L8.2052 6.18001C6.6152 6.78001 5.3252 8.64001 5.3252 10.335V22.485C5.3252 23.7 6.1202 25.305 7.0952 26.025L15.3452 32.19C16.8002 33.285 19.1852 33.285 20.6402 32.19L28.8902 26.025C29.8652 25.29 30.6602 23.7 30.6602 22.485V10.335C30.6752 8.64001 29.3852 6.78001 27.8102 6.18001ZM23.2202 14.58L16.7702 21.03C16.5452 21.255 16.2602 21.36 15.9752 21.36C15.6902 21.36 15.4052 21.255 15.1802 21.03L12.7802 18.6C12.3452 18.165 12.3452 17.445 12.7802 17.01C13.2152 16.575 13.9352 16.575 14.3702 17.01L15.9902 18.63L21.6452 12.975C22.0802 12.54 22.8002 12.54 23.2352 12.975C23.6702 13.41 23.6702 14.145 23.2202 14.58Z" fill="white"/>
</svg>
