<svg width="25" height="24" viewBox="0 0 25 24" fill="none" xmlns="http://www.w3.org/2000/svg">
<path d="M21.51 11.2207V15.7107C21.51 20.2007 19.72 22.0007 15.22 22.0007H9.83002C9.25002 22.0007 8.71998 21.9708 8.22998 21.9008" stroke="white" stroke-width="1.5" stroke-linecap="round" stroke-linejoin="round"/>
<path d="M3.54004 15.5208V11.2207" stroke="white" stroke-width="1.5" stroke-linecap="round" stroke-linejoin="round"/>
<path d="M12.5299 12C14.3599 12 15.7099 10.5101 15.5299 8.68005L14.8599 2H10.1899L9.51991 8.68005C9.33991 10.5101 10.6999 12 12.5299 12Z" stroke="white" stroke-width="1.5" stroke-linecap="round" stroke-linejoin="round"/>
<path d="M18.8301 12C20.8501 12 22.3301 10.36 22.1301 8.34998L21.85 5.59998C21.49 2.99998 20.4901 2 17.8701 2H14.8201L15.5201 9.01001C15.7001 10.66 17.1801 12 18.8301 12Z" stroke="white" stroke-width="1.5" stroke-linecap="round" stroke-linejoin="round"/>
<path d="M6.17004 12C7.82004 12 9.31003 10.66 9.47003 9.01001L9.69006 6.80005L10.17 2H7.12005C4.50005 2 3.50007 2.99998 3.14007 5.59998L2.86004 8.34998C2.66004 10.36 4.15004 12 6.17004 12Z" stroke="white" stroke-width="1.5" stroke-linecap="round" stroke-linejoin="round"/>
<path d="M9.5 19C9.5 19.75 9.28998 20.4601 8.91998 21.0601C8.72998 21.3801 8.49998 21.67 8.22998 21.9C8.19998 21.94 8.17 21.97 8.13 22C7.43 22.63 6.51 23 5.5 23C4.28 23 3.18997 22.45 2.46997 21.59C2.44997 21.56 2.42002 21.54 2.40002 21.51C2.28002 21.37 2.17002 21.2201 2.08002 21.0601C1.71002 20.4601 1.5 19.75 1.5 19C1.5 17.74 2.08 16.61 3 15.88C3.17 15.74 3.34998 15.62 3.53998 15.52C4.11998 15.19 4.79 15 5.5 15C6.5 15 7.39998 15.36 8.09998 15.97C8.21998 16.06 8.32999 16.17 8.42999 16.28C9.08999 17 9.5 17.95 9.5 19Z" stroke="white" stroke-width="1.5" stroke-miterlimit="10" stroke-linecap="round" stroke-linejoin="round"/>
<path d="M6.98999 18.9805H4.01001" stroke="white" stroke-miterlimit="10" stroke-linecap="round" stroke-linejoin="round"/>
<path d="M5.5 17.5195V20.5095" stroke="white" stroke-miterlimit="10" stroke-linecap="round" stroke-linejoin="round"/>
</svg>
