<svg width="24" height="24" viewBox="0 0 24 24" fill="none" xmlns="http://www.w3.org/2000/svg">
<path d="M21.01 11.22V15.71C21.01 20.2 19.22 22 14.72 22H9.33002C8.75002 22 8.21998 21.97 7.72998 21.9" stroke="#292D32" stroke-width="2" stroke-linecap="round" stroke-linejoin="round"/>
<path d="M3.04004 15.52V11.22" stroke="#292D32" stroke-width="2" stroke-linecap="round" stroke-linejoin="round"/>
<path d="M12.03 12C13.86 12 15.21 10.5101 15.03 8.68005L14.36 2H9.69001L9.02003 8.68005C8.84003 10.5101 10.2 12 12.03 12Z" stroke="#292D32" stroke-width="2" stroke-linecap="round" stroke-linejoin="round"/>
<path d="M18.3301 12C20.3501 12 21.8301 10.36 21.6301 8.34998L21.35 5.59998C20.99 2.99998 19.9901 2 17.3701 2H14.3201L15.0201 9.01001C15.2001 10.66 16.6801 12 18.3301 12Z" stroke="#292D32" stroke-width="2" stroke-linecap="round" stroke-linejoin="round"/>
<path d="M5.67004 12C7.32004 12 8.81003 10.66 8.97003 9.01001L9.19006 6.80005L9.67004 2H6.62005C4.00005 2 3.00007 2.99998 2.64007 5.59998L2.36004 8.34998C2.16004 10.36 3.65004 12 5.67004 12Z" stroke="#292D32" stroke-width="2" stroke-linecap="round" stroke-linejoin="round"/>
<path d="M9 19C9 19.75 8.79001 20.46 8.42001 21.06C8.21001 21.42 7.94 21.74 7.63 22C6.93 22.63 6.01 23 5 23C3.54 23 2.26999 22.22 1.57999 21.06C1.20999 20.46 1 19.75 1 19C1 17.74 1.58 16.61 2.5 15.88C3.19 15.33 4.06 15 5 15C7.21 15 9 16.79 9 19Z" stroke="#292D32" stroke-width="2" stroke-miterlimit="10" stroke-linecap="round" stroke-linejoin="round"/>
<path d="M3.43994 19L4.42993 19.99L6.55994 18.02" stroke="#292D32" stroke-width="2" stroke-linecap="round" stroke-linejoin="round"/>
</svg>
