<svg width="52" height="53" viewBox="0 0 52 53" fill="none" xmlns="http://www.w3.org/2000/svg">
<path d="M45.5214 24.8096V34.5379C45.5214 44.2662 41.643 48.1663 31.893 48.1663H20.2148C18.9581 48.1663 17.8097 48.1014 16.748 47.9497" stroke="#6A7686" stroke-width="4" stroke-linecap="round" stroke-linejoin="round"/>
<path d="M6.58643 34.1263V24.8096" stroke="#6A7686" stroke-width="4" stroke-linecap="round" stroke-linejoin="round"/>
<path d="M26.0651 26.4997C30.0301 26.4997 32.9551 23.2715 32.5651 19.3065L31.1134 4.83301H20.9951L19.5435 19.3065C19.1535 23.2715 22.1001 26.4997 26.0651 26.4997Z" stroke="#6A7686" stroke-width="4" stroke-linecap="round" stroke-linejoin="round"/>
<path d="M39.7152 26.4997C44.0919 26.4997 47.2985 22.9463 46.8652 18.5913L46.2585 12.633C45.4785 6.99962 43.3118 4.83301 37.6352 4.83301H31.0269L32.5435 20.0214C32.9335 23.5964 36.1402 26.4997 39.7152 26.4997Z" stroke="#6A7686" stroke-width="4" stroke-linecap="round" stroke-linejoin="round"/>
<path d="M12.2849 26.4997C15.8599 26.4997 19.0882 23.5964 19.4349 20.0214L19.9116 15.2331L20.9515 4.83301H14.3432C8.66657 4.83301 6.49995 6.99962 5.71995 12.633L5.11322 18.5913C4.67988 22.9463 7.90821 26.4997 12.2849 26.4997Z" stroke="#6A7686" stroke-width="4" stroke-linecap="round" stroke-linejoin="round"/>
<path d="M19.4998 41.6667C19.4998 43.2917 19.0448 44.8301 18.2431 46.1301C17.8315 46.8235 17.3331 47.4517 16.7481 47.9501C16.6831 48.0367 16.6182 48.1017 16.5315 48.1667C15.0148 49.5317 13.0215 50.3333 10.8332 50.3333C8.18984 50.3333 5.82811 49.1416 4.26811 47.2783C4.22477 47.2133 4.15989 47.17 4.11656 47.105C3.85656 46.8017 3.61821 46.4768 3.42321 46.1301C2.62154 44.8301 2.1665 43.2917 2.1665 41.6667C2.1665 38.9367 3.42317 36.4883 5.4165 34.9067C5.78484 34.6033 6.17479 34.3434 6.58646 34.1267C7.84312 33.4117 9.29484 33 10.8332 33C12.9998 33 14.9498 33.7799 16.4665 35.1016C16.7265 35.2966 16.9648 35.5351 17.1815 35.7734C18.6115 37.3334 19.4998 39.3917 19.4998 41.6667Z" stroke="#6A7686" stroke-width="4" stroke-miterlimit="10" stroke-linecap="round" stroke-linejoin="round"/>
<path d="M14.0616 41.623H7.60498" stroke="#6A7686" stroke-width="4" stroke-miterlimit="10" stroke-linecap="round" stroke-linejoin="round"/>
</svg>
