<svg width="28" height="26" viewBox="0 0 28 26" fill="none" xmlns="http://www.w3.org/2000/svg">
<path d="M16.417 8.67383C16.6847 9.49766 17.4521 10.0555 18.3184 10.0557H26.1396L19.8125 14.6523C19.1553 15.1298 18.8561 15.9533 19.042 16.7334L19.0859 16.8887L21.5029 24.3262L15.1758 19.7295C14.5187 19.2521 13.6434 19.2221 12.959 19.6396L12.8242 19.7295L6.49707 24.3262L8.91406 16.8887C9.16503 16.1163 8.92304 15.2748 8.31445 14.7529L8.1875 14.6523L1.86035 10.0557H9.68164C10.4937 10.0555 11.2192 9.5653 11.5273 8.8252L11.583 8.67383L14 1.23633L16.417 8.67383Z" stroke="#FF6B00" stroke-width="2"/>
</svg>
