<svg width="33" height="32" viewBox="0 0 33 32" fill="none" xmlns="http://www.w3.org/2000/svg">
<path d="M22.253 2.66699H11.0797C6.22634 2.66699 3.33301 5.56033 3.33301 10.4137V21.5737C3.33301 26.4403 6.22634 29.3337 11.0797 29.3337H22.2397C27.093 29.3337 29.9863 26.4403 29.9863 21.587V10.4137C29.9997 5.56033 27.1063 2.66699 22.253 2.66699ZM23.0397 12.9337L15.4797 20.4937C15.293 20.6803 15.0397 20.787 14.773 20.787C14.5063 20.787 14.253 20.6803 14.0663 20.4937L10.293 16.7203C9.90634 16.3337 9.90634 15.6937 10.293 15.307C10.6797 14.9203 11.3197 14.9203 11.7063 15.307L14.773 18.3737L21.6263 11.5203C22.013 11.1337 22.653 11.1337 23.0397 11.5203C23.4263 11.907 23.4263 12.5337 23.0397 12.9337Z" fill="#1053D5"/>
</svg>
