<svg width="32" height="32" viewBox="0 0 32 32" fill="none" xmlns="http://www.w3.org/2000/svg">
<path d="M28.8198 10.4123V10.4137V21.587C28.8198 23.9142 28.1281 25.7116 26.913 26.9268C25.6978 28.1419 23.9004 28.8337 21.5732 28.8337H10.4132C8.08595 28.8337 6.28867 28.1419 5.07361 26.9253C3.85848 25.7087 3.1665 23.9079 3.1665 21.5737V10.4137C3.1665 8.08643 3.85827 6.289 5.07339 5.07388C6.28852 3.85875 8.08594 3.16699 10.4132 3.16699H21.5865C23.9138 3.16699 25.7111 3.8588 26.9244 5.07366C28.1376 6.28841 28.8262 8.08537 28.8198 10.4123Z" stroke="#E8E8E8"/>
<rect x="10.8335" y="10.5" width="11" height="11" rx="3.5" fill="#E8E8E8" stroke="#E8E8E8"/>
</svg>
