<svg width="64" height="64" viewBox="0 0 64 64" fill="none" xmlns="http://www.w3.org/2000/svg">
<rect width="64" height="64" rx="20" fill="white" fill-opacity="0.09"/>
<rect x="1" y="1" width="62" height="62" rx="19" stroke="white" stroke-opacity="0.09" stroke-width="2"/>
<path opacity="0.4" d="M44.3998 30.4532C44.9198 30.4532 45.3332 30.0398 45.3332 29.5198V28.2798C45.3332 22.8132 43.6665 21.1465 38.1998 21.1465H25.7998C20.3332 21.1465 18.6665 22.8132 18.6665 28.2798V28.9065C18.6665 29.4265 19.0798 29.8398 19.5998 29.8398C20.7998 29.8398 21.7732 30.8132 21.7732 32.0132C21.7732 33.2132 20.7998 34.1732 19.5998 34.1732C19.0798 34.1732 18.6665 34.5865 18.6665 35.1065V35.7332C18.6665 41.1998 20.3332 42.8665 25.7998 42.8665H38.1998C43.6665 42.8665 45.3332 41.1998 45.3332 35.7332C45.3332 35.2132 44.9198 34.7998 44.3998 34.7998C43.1998 34.7998 42.2265 33.8265 42.2265 32.6265C42.2265 31.4265 43.1998 30.4532 44.3998 30.4532Z" fill="white"/>
<path d="M36 37.1725C35.2533 37.1725 34.6533 36.5725 34.6533 35.8392C34.6533 35.1059 35.2533 34.5059 35.9867 34.5059C36.72 34.5059 37.32 35.1059 37.32 35.8392C37.32 36.5725 36.7467 37.1725 36 37.1725Z" fill="white"/>
<path d="M28 30.5065C27.2533 30.5065 26.6533 29.9065 26.6533 29.1732C26.6533 28.4398 27.2533 27.8398 27.9867 27.8398C28.72 27.8398 29.32 28.4398 29.32 29.1732C29.32 29.9065 28.7467 30.5065 28 30.5065Z" fill="white"/>
<path d="M27.5064 37.9075C27.2531 37.9075 26.9998 37.8142 26.7998 37.6142C26.4131 37.2275 26.4131 36.5875 26.7998 36.2008L35.7731 27.2275C36.1598 26.8408 36.7998 26.8408 37.1864 27.2275C37.5731 27.6142 37.5731 28.2542 37.1864 28.6408L28.2131 37.6142C28.0264 37.8142 27.7598 37.9075 27.5064 37.9075Z" fill="white"/>
</svg>
