<svg width="36" height="36" viewBox="0 0 36 36" fill="none" xmlns="http://www.w3.org/2000/svg">
<path d="M26.0852 23.505L20.0252 18H15.9602L9.90021 23.505C8.20521 25.035 7.65021 27.39 8.47521 29.52C9.30021 31.635 11.3102 33 13.5752 33H22.4102C24.6902 33 26.6852 31.635 27.5102 29.52C28.3352 27.39 27.7802 25.035 26.0852 23.505ZM20.7302 27.21H15.2702C14.7002 27.21 14.2502 26.745 14.2502 26.19C14.2502 25.635 14.7152 25.17 15.2702 25.17H20.7302C21.3002 25.17 21.7502 25.635 21.7502 26.19C21.7502 26.745 21.2852 27.21 20.7302 27.21Z" fill="white"/>
<path d="M27.525 6.48C26.7 4.365 24.69 3 22.425 3H13.575C11.31 3 9.3 4.365 8.475 6.48C7.665 8.61 8.22 10.965 9.915 12.495L15.975 18H20.04L26.1 12.495C27.78 10.965 28.335 8.61 27.525 6.48ZM20.73 10.845H15.27C14.7 10.845 14.25 10.38 14.25 9.825C14.25 9.27 14.715 8.805 15.27 8.805H20.73C21.3 8.805 21.75 9.27 21.75 9.825C21.75 10.38 21.285 10.845 20.73 10.845Z" fill="white"/>
</svg>
