<svg width="110" height="107" viewBox="0 0 110 107" fill="none" xmlns="http://www.w3.org/2000/svg">
<rect x="1" y="1.5" width="104" height="104" rx="52" stroke="#00A48A" stroke-opacity="0.1" stroke-width="2"/>
<rect x="16" y="16.5" width="74" height="74" rx="37" fill="#00A48A" fill-opacity="0.09"/>
<rect x="17" y="17.5" width="72" height="72" rx="36" stroke="#00A48A" stroke-opacity="0.3" stroke-width="2"/>
<path d="M53.0003 32.667C41.5212 32.667 32.167 42.0212 32.167 53.5003C32.167 64.9795 41.5212 74.3337 53.0003 74.3337C64.4795 74.3337 73.8337 64.9795 73.8337 53.5003C73.8337 42.0212 64.4795 32.667 53.0003 32.667ZM62.9587 48.7087L51.1462 60.5212C50.8545 60.8128 50.4587 60.9795 50.042 60.9795C49.6253 60.9795 49.2295 60.8128 48.9378 60.5212L43.042 54.6253C42.4378 54.0212 42.4378 53.0212 43.042 52.417C43.6462 51.8128 44.6462 51.8128 45.2503 52.417L50.042 57.2087L60.7503 46.5003C61.3545 45.8962 62.3545 45.8962 62.9587 46.5003C63.5628 47.1045 63.5628 48.0837 62.9587 48.7087Z" fill="#00A48A"/>
<path d="M6.08086 1.14467C6.42719 0.336563 7.57281 0.336564 7.91915 1.14467L9.24243 4.23234C9.34358 4.46836 9.53164 4.65642 9.76766 4.75757L12.8553 6.08086C13.6634 6.42719 13.6634 7.57281 12.8553 7.91915L9.76766 9.24243C9.53164 9.34358 9.34358 9.53164 9.24243 9.76766L7.91914 12.8553C7.57281 13.6634 6.42719 13.6634 6.08086 12.8553L4.75757 9.76766C4.65642 9.53164 4.46836 9.34358 4.23234 9.24243L1.14467 7.91914C0.336563 7.57281 0.336564 6.42719 1.14467 6.08085L4.23234 4.75757C4.46836 4.65642 4.65642 4.46836 4.75757 4.23234L6.08086 1.14467Z" fill="#00A48A"/>
<path d="M103.081 94.1447C103.427 93.3366 104.573 93.3366 104.919 94.1447L105.942 96.5323C106.044 96.7684 106.232 96.9564 106.468 97.0576L108.855 98.0809C109.663 98.4272 109.663 99.5728 108.855 99.9191L106.468 100.942C106.232 101.044 106.044 101.232 105.942 101.468L104.919 103.855C104.573 104.663 103.427 104.663 103.081 103.855L102.058 101.468C101.956 101.232 101.768 101.044 101.532 100.942L99.1447 99.9191C98.3366 99.5728 98.3366 98.4272 99.1447 98.0809L101.532 97.0576C101.768 96.9564 101.956 96.7684 102.058 96.5323L103.081 94.1447Z" fill="#00A48A"/>
</svg>
