<svg width="48" height="48" viewBox="0 0 48 48" fill="none" xmlns="http://www.w3.org/2000/svg">
<path opacity="0.4" d="M24.0005 4.88989C24.2395 4.88999 24.5528 4.9986 24.853 5.3479L24.981 5.51294L24.9858 5.52075L33.3267 17.2014L33.3286 17.2034C33.9143 18.0184 33.8342 18.4756 33.7544 18.6311C33.6735 18.788 33.3441 19.1203 32.3403 19.1204H15.6597C14.6561 19.1203 14.3275 18.788 14.2466 18.6311C14.1717 18.4856 14.0963 18.0753 14.5698 17.3528L14.6724 17.2034L14.6743 17.2014L23.0142 5.52075L23.019 5.51294C23.3561 5.03155 23.7272 4.88989 24.0005 4.88989Z" fill="#1053D5" stroke="#1053D5" stroke-width="2"/>
<path d="M35.1802 36.0001H12.8202C9.66018 36.0001 8.58018 33.9001 10.4402 31.3401L18.4202 20.1201H29.5802L37.5602 31.3401C39.4202 33.9001 38.3402 36.0001 35.1802 36.0001Z" fill="#1053D5"/>
<path d="M25.5 36V44C25.5 44.82 24.82 45.5 24 45.5C23.18 45.5 22.5 44.82 22.5 44V36H25.5Z" fill="#1053D5"/>
</svg>
