<svg width="20" height="20" viewBox="0 0 20 20" fill="none" xmlns="http://www.w3.org/2000/svg">
<path d="M6.9834 9.99909L8.99173 12.0158L13.0167 7.98242" stroke="#6A7686" stroke-width="2" stroke-linecap="round" stroke-linejoin="round"/>
<path d="M8.9584 2.04258C9.5334 1.55091 10.4751 1.55091 11.0584 2.04258L12.3751 3.17591C12.6251 3.39258 13.0917 3.56758 13.4251 3.56758H14.8417C15.7251 3.56758 16.4501 4.29258 16.4501 5.17591V6.59258C16.4501 6.91758 16.6251 7.39258 16.8417 7.64258L17.9751 8.95925C18.4667 9.53425 18.4667 10.4759 17.9751 11.0592L16.8417 12.3759C16.6251 12.6259 16.4501 13.0926 16.4501 13.4259V14.8426C16.4501 15.7259 15.7251 16.4509 14.8417 16.4509H13.4251C13.1001 16.4509 12.6251 16.6259 12.3751 16.8426L11.0584 17.9759C10.4834 18.4676 9.54173 18.4676 8.9584 17.9759L7.64173 16.8426C7.39173 16.6259 6.92506 16.4509 6.59173 16.4509H5.15006C4.26673 16.4509 3.54173 15.7259 3.54173 14.8426V13.4176C3.54173 13.0926 3.36673 12.6259 3.1584 12.3759L2.0334 11.0509C1.55007 10.4759 1.55007 9.54258 2.0334 8.96758L3.1584 7.64258C3.36673 7.39258 3.54173 6.92591 3.54173 6.60091V5.16758C3.54173 4.28424 4.26673 3.55924 5.15006 3.55924H6.59173C6.91673 3.55924 7.39173 3.38424 7.64173 3.16758L8.9584 2.04258Z" stroke="#6A7686" stroke-width="2" stroke-linecap="round" stroke-linejoin="round"/>
</svg>
