<svg width="48" height="48" viewBox="0 0 48 48" fill="none" xmlns="http://www.w3.org/2000/svg">
<path opacity="0.4" d="M34.3599 11.5C35.9715 11.5 37.5902 11.8108 38.7876 12.7207C39.9331 13.5912 40.8599 15.1392 40.8599 18V30C40.8599 32.8608 39.9331 34.4088 38.7876 35.2793C37.5902 36.1892 35.9715 36.5 34.3599 36.5C32.7482 36.5 31.1295 36.1892 29.9321 35.2793C28.7866 34.4088 27.8599 32.8608 27.8599 30V18C27.8599 15.1392 28.7866 13.5912 29.9321 12.7207C31.1295 11.8108 32.7482 11.5 34.3599 11.5Z" fill="#1053D5" stroke="#1053D5" stroke-width="2"/>
<path opacity="0.4" d="M13.6401 11.5C15.2518 11.5 16.8705 11.8108 18.0679 12.7207C19.2134 13.5912 20.1401 15.1392 20.1401 18V30C20.1401 32.8608 19.2134 34.4088 18.0679 35.2793C16.8705 36.1892 15.2518 36.5 13.6401 36.5C12.0285 36.5 10.4098 36.1892 9.2124 35.2793C8.06687 34.4088 7.14014 32.8608 7.14014 30V18C7.14014 15.1392 8.06687 13.5912 9.2124 12.7207C10.4098 11.8108 12.0285 11.5 13.6401 11.5Z" fill="#1053D5" stroke="#1053D5" stroke-width="2"/>
<path d="M26.8601 22.5H21.1401V25.5H26.8601V22.5Z" fill="#1053D5"/>
<path d="M45 30.5C44.18 30.5 43.5 29.82 43.5 29V19C43.5 18.18 44.18 17.5 45 17.5C45.82 17.5 46.5 18.18 46.5 19V29C46.5 29.82 45.82 30.5 45 30.5Z" fill="#1053D5"/>
<path d="M3 30.5C2.18 30.5 1.5 29.82 1.5 29V19C1.5 18.18 2.18 17.5 3 17.5C3.82 17.5 4.5 18.18 4.5 19V29C4.5 29.82 3.82 30.5 3 30.5Z" fill="#1053D5"/>
</svg>
