<svg width="56" height="56" viewBox="0 0 56 56" fill="none" xmlns="http://www.w3.org/2000/svg">
<path d="M40.0874 42C45.6874 42 47.0874 38.85 47.0874 35V21C47.0874 17.15 45.6874 14 40.0874 14C34.4874 14 33.0874 17.15 33.0874 21V35C33.0874 38.85 34.4874 42 40.0874 42Z" stroke="#292D32" stroke-width="3.5" stroke-linecap="round" stroke-linejoin="round"/>
<path d="M15.9126 42C10.3126 42 8.9126 38.85 8.9126 35V21C8.9126 17.15 10.3126 14 15.9126 14C21.5126 14 22.9126 17.15 22.9126 21V35C22.9126 38.85 21.5126 42 15.9126 42Z" stroke="#292D32" stroke-width="3.5" stroke-linecap="round" stroke-linejoin="round"/>
<path d="M22.9126 28H33.0859" stroke="#292D32" stroke-width="3.5" stroke-linecap="round" stroke-linejoin="round"/>
<path d="M52.5 33.8333V22.1666" stroke="#292D32" stroke-width="3.5" stroke-linecap="round" stroke-linejoin="round"/>
<path d="M3.5 33.8333V22.1666" stroke="#292D32" stroke-width="3.5" stroke-linecap="round" stroke-linejoin="round"/>
</svg>
