<svg width="64" height="64" viewBox="0 0 64 64" fill="none" xmlns="http://www.w3.org/2000/svg">
<mask id="mask0_163_4928" style="mask-type:alpha" maskUnits="userSpaceOnUse" x="0" y="0" width="64" height="64">
<rect width="64" height="64" rx="20" fill="#D9D9D9"/>
</mask>
<g mask="url(#mask0_163_4928)">
<rect width="64" height="64" rx="20" fill="#7B19D8"/>
</g>
<g clip-path="url(#clip0_163_4928)">
<path d="M21.0054 16L29.3132 23.0631C29.8064 23.4824 30.0907 24.0978 30.0907 24.7458V30.069L21.7828 23.0059C21.2896 22.5866 21.0054 21.9712 21.0054 21.3231V16Z" fill="white"/>
<path d="M21.0054 48.0001L29.3132 40.937C29.8064 40.5177 30.0907 39.9024 30.0907 39.2543V33.9312L21.7828 40.9943C21.2896 41.4136 21.0054 42.0289 21.0054 42.677V48.0001Z" fill="white"/>
<path d="M11.0942 23.4482L19.2891 30.3764C19.6864 30.7123 20.1895 30.8965 20.7094 30.8965H27.3182L19.1435 23.97C18.7459 23.6331 18.2421 23.4482 17.7213 23.4482H11.0942Z" fill="white"/>
<path d="M11.0942 40.5518L19.2387 33.6277C19.6367 33.2893 20.1417 33.1035 20.6636 33.1035H27.3379L19.143 40.0316C18.7457 40.3675 18.2426 40.5518 17.7227 40.5518H11.0942Z" fill="white"/>
<path d="M41.3788 16L33.0709 23.0631C32.5777 23.4824 32.2935 24.0978 32.2935 24.7458V30.069L40.6013 23.0059C41.0945 22.5866 41.3788 21.9712 41.3788 21.3231V16Z" fill="white"/>
<path d="M41.3788 48.0001L33.0709 40.937C32.5777 40.5177 32.2935 39.9024 32.2935 39.2543V33.9312L40.6013 40.9943C41.0945 41.4136 41.3788 42.0289 41.3788 42.677V48.0001Z" fill="white"/>
<path d="M51.2904 23.4482L43.0956 30.3764C42.6983 30.7123 42.1951 30.8965 41.6753 30.8965H35.0664L43.2412 23.97C43.6387 23.6331 44.1426 23.4482 44.6633 23.4482H51.2904Z" fill="white"/>
<path d="M51.2905 40.5518L43.1461 33.6277C42.748 33.2893 42.243 33.1035 41.721 33.1035H35.0469L43.2417 40.0316C43.639 40.3675 44.1421 40.5518 44.662 40.5518H51.2905Z" fill="white"/>
</g>
<defs>
<clipPath id="clip0_163_4928">
<rect x="11" y="16" width="41" height="32" rx="16" fill="white"/>
</clipPath>
</defs>
</svg>
