<svg width="64" height="64" viewBox="0 0 64 64" fill="none" xmlns="http://www.w3.org/2000/svg">
<mask id="mask0_163_5142" style="mask-type:alpha" maskUnits="userSpaceOnUse" x="0" y="0" width="64" height="64">
<rect width="64" height="64" rx="20" fill="#D9D9D9"/>
</mask>
<g mask="url(#mask0_163_5142)">
<rect width="64" height="64" rx="20" fill="#FF0A0A"/>
</g>
<g clip-path="url(#clip0_163_5142)">
<path d="M41.7631 48C46.8831 47.8951 51 43.6858 51 38.5111C51 35.9945 50.0061 33.581 48.2367 31.8014L32.5263 16V25.8217C32.5263 27.4642 33.1751 29.0396 34.33 30.2011L38.0102 33.9027L38.0202 33.9126L44.1911 40.1192C44.3915 40.3207 44.3915 40.6475 44.1911 40.849C43.9907 41.0506 43.6658 41.0506 43.4654 40.849L41.3383 38.7097H21.6617L19.5346 40.849C19.3342 41.0506 19.0093 41.0506 18.8089 40.849C18.6085 40.6475 18.6085 40.3207 18.8089 40.1192L24.9798 33.9126L24.9898 33.9027L28.67 30.2011C29.8249 29.0396 30.4737 27.4642 30.4737 25.8217V16L14.7632 31.8014C12.994 33.581 12 35.9945 12 38.5111C12 43.6858 16.1169 47.8951 21.2369 48H41.7631Z" fill="white"/>
</g>
<defs>
<clipPath id="clip0_163_5142">
<rect x="12" y="16" width="39" height="32" rx="16" fill="white"/>
</clipPath>
</defs>
</svg>
