<svg width="64" height="64" viewBox="0 0 64 64" fill="none" xmlns="http://www.w3.org/2000/svg">
<mask id="mask0_155_5436" style="mask-type:alpha" maskUnits="userSpaceOnUse" x="0" y="0" width="64" height="64">
<rect width="64" height="64" rx="20" fill="#D9D9D9"/>
</mask>
<g mask="url(#mask0_155_5436)">
<rect width="64" height="64" rx="20" fill="#166B52"/>
</g>
<g clip-path="url(#clip0_155_5436)">
<path d="M47.9559 33.2H42.2402C37.2475 33.2 33.2002 37.2473 33.2002 42.24V47.9556C41.0801 47.3713 47.3716 41.0799 47.9559 33.2Z" fill="white"/>
<path d="M30.8001 47.9556V42.24C30.8001 37.2473 26.7528 33.2 21.7601 33.2H16.0444C16.6287 41.0799 22.9202 47.3713 30.8001 47.9556Z" fill="white"/>
<path d="M47.9559 30.7999C47.3716 22.9199 41.0801 16.6285 33.2002 16.0442V21.7599C33.2002 26.7525 37.2475 30.7999 42.2402 30.7999H47.9559Z" fill="white"/>
<path d="M30.8001 16.0442C22.9202 16.6285 16.6287 22.9199 16.0444 30.7999H21.7601C26.7528 30.7999 30.8001 26.7525 30.8001 21.7599V16.0442Z" fill="white"/>
<path d="M26.8662 31.9998C29.0842 30.8916 30.8918 29.084 32 26.866C33.1082 29.084 34.9157 30.8916 37.1338 31.9998C34.9157 33.108 33.1082 34.9156 32 37.1336C30.8918 34.9156 29.0842 33.108 26.8662 31.9998Z" fill="white"/>
</g>
<defs>
<clipPath id="clip0_155_5436">
<rect x="16" y="16" width="32" height="32" rx="16" fill="white"/>
</clipPath>
</defs>
</svg>
