<svg width="64" height="64" viewBox="0 0 64 64" fill="none" xmlns="http://www.w3.org/2000/svg">
<mask id="mask0_157_5953" style="mask-type:alpha" maskUnits="userSpaceOnUse" x="0" y="0" width="64" height="64">
<rect width="64" height="64" rx="20" fill="#D9D9D9"/>
</mask>
<g mask="url(#mask0_157_5953)">
<rect width="64" height="64" rx="20" fill="#F06225"/>
</g>
<g clip-path="url(#clip0_157_5953)">
<path d="M31.9998 16C40.8366 16 47.9998 23.1632 47.9998 32V43.2C47.9998 44.473 47.4941 45.6939 46.594 46.5941C45.6938 47.4943 44.4729 48 43.1998 48H32.7998V40.9808C32.7998 39.3792 32.8974 37.72 33.7374 36.3568C34.3388 35.3799 35.1433 34.5437 36.0963 33.905C37.0492 33.2664 38.1284 32.8401 39.2606 32.6552L39.567 32.6056C39.6934 32.5624 39.803 32.4808 39.8807 32.3722C39.9583 32.2636 40 32.1335 40 32C40 31.8665 39.9583 31.7364 39.8807 31.6278C39.803 31.5192 39.6934 31.4376 39.567 31.3944L39.2606 31.3448C37.6064 31.0746 36.0788 30.2916 34.8935 29.1063C33.7083 27.9211 32.9253 26.3935 32.655 24.7392L32.6054 24.4328C32.5623 24.3065 32.4807 24.1968 32.3721 24.1192C32.2635 24.0415 32.1333 23.9998 31.9998 23.9998C31.8663 23.9998 31.7362 24.0415 31.6276 24.1192C31.519 24.1968 31.4374 24.3065 31.3942 24.4328L31.3446 24.7392C31.1598 25.8714 30.7336 26.9506 30.0949 27.9036C29.4562 28.8566 28.62 29.661 27.643 30.2624C26.2798 31.1024 24.6206 31.2 23.019 31.2H16.019C16.4374 22.7352 23.4318 16 31.9998 16Z" fill="white"/>
<path d="M16 32.8H23.0192C24.6208 32.8 26.28 32.8976 27.6432 33.7376C28.7088 34.3942 29.6058 35.2912 30.2624 36.3568C31.1024 37.72 31.2 39.3792 31.2 40.9808V48H20.8C19.527 48 18.3061 47.4943 17.4059 46.5941C16.5057 45.6939 16 44.473 16 43.2V32.8ZM48 17.6C48 18.0243 47.8314 18.4313 47.5314 18.7314C47.2313 19.0314 46.8243 19.2 46.4 19.2C45.9757 19.2 45.5687 19.0314 45.2686 18.7314C44.9686 18.4313 44.8 18.0243 44.8 17.6C44.8 17.1757 44.9686 16.7687 45.2686 16.4686C45.5687 16.1686 45.9757 16 46.4 16C46.8243 16 47.2313 16.1686 47.5314 16.4686C47.8314 16.7687 48 17.1757 48 17.6Z" fill="white"/>
</g>
<defs>
<clipPath id="clip0_157_5953">
<rect x="16" y="16" width="32" height="32" rx="16" fill="white"/>
</clipPath>
</defs>
</svg>
