<svg width="64" height="64" viewBox="0 0 64 64" fill="none" xmlns="http://www.w3.org/2000/svg">
<mask id="mask0_157_5994" style="mask-type:alpha" maskUnits="userSpaceOnUse" x="0" y="0" width="64" height="64">
<rect width="64" height="64" rx="20" fill="#D9D9D9"/>
</mask>
<g mask="url(#mask0_157_5994)">
<rect width="64" height="64" rx="20" fill="#193070"/>
</g>
<g clip-path="url(#clip0_157_5994)">
<path fill-rule="evenodd" clip-rule="evenodd" d="M21.5449 22.4979V28.5422C22.0206 28.4275 22.4878 28.2761 22.9422 28.0887C24.0924 27.6142 25.1375 26.9188 26.0178 26.0421C26.8982 25.1656 27.5965 24.1248 28.073 22.9794C28.3707 22.2636 28.5781 21.5156 28.6918 20.7527C26.2584 20.9873 23.8506 21.569 21.5449 22.4979ZM17.0835 19.577V28.8073V33.2499V33.3887C17.0835 41.1328 23.3879 47.4106 31.1647 47.4106C38.9415 47.4106 45.2459 41.1328 45.2459 33.3887V33.2499V28.8073V19.577L43.1839 18.6832C35.5184 15.3605 26.8109 15.3605 19.1455 18.6832L17.0835 19.577ZM21.5457 33.5151C21.6031 37.9354 24.6671 41.6337 28.7946 42.6751C28.7926 41.4405 28.5474 40.2184 28.073 39.0777C27.5965 37.9322 26.8982 36.8915 26.0178 36.0149C25.1375 35.1383 24.0924 34.4429 22.9422 33.9685C22.4881 33.7812 22.0212 33.6298 21.5457 33.5151ZM31.0252 35.1576C30.4918 34.3351 29.8711 33.5692 29.1725 32.8735C28.4739 32.1779 27.7047 31.5598 26.8788 31.0285C27.7047 30.4973 28.4739 29.8793 29.1725 29.1836C29.8711 28.4879 30.4918 27.722 31.0252 26.8995C31.5588 27.722 32.1794 28.4879 32.878 29.1836C33.5766 29.8793 34.3458 30.4973 35.1718 31.0285C34.3458 31.5598 33.5766 32.1779 32.878 32.8735C32.1794 33.5692 31.5588 34.3351 31.0252 35.1576ZM33.256 42.7411C37.5433 41.7946 40.7547 37.9994 40.7843 33.4522C40.2122 33.5721 39.6511 33.7446 39.1084 33.9685C37.9581 34.4429 36.913 35.1383 36.0327 36.0149C35.1523 36.8915 34.4541 37.9322 33.9776 39.0777C33.5011 40.2231 33.256 41.4507 33.256 42.6904V42.7411ZM39.1084 28.0887C39.6512 28.3125 40.2124 28.4851 40.7845 28.605V22.4979C38.3896 21.5331 35.8846 20.9428 33.3549 20.727C33.4678 21.4989 33.6765 22.2556 33.9776 22.9794C34.4541 24.1248 35.1523 25.1656 36.0327 26.0421C36.913 26.9188 37.9581 27.6142 39.1084 28.0887Z" fill="white"/>
</g>
<defs>
<clipPath id="clip0_157_5994">
<rect x="17" y="16" width="29" height="32" rx="14.5" fill="white"/>
</clipPath>
</defs>
</svg>
