<svg width="500" height="500" viewBox="0 0 500 500" fill="none" xmlns="http://www.w3.org/2000/svg">
<mask id="mask0_539_24953" style="mask-type:alpha" maskUnits="userSpaceOnUse" x="0" y="0" width="500" height="500">
<rect width="500" height="500" fill="#D9D9D9"/>
</mask>
<g mask="url(#mask0_539_24953)">
<rect width="500" height="500" fill="#4E35B3" fill-opacity="0.05"/>
</g>
<g clip-path="url(#clip0_539_24953)">
<path fill-rule="evenodd" clip-rule="evenodd" d="M145.349 220.93V313.954H174.419C177.473 313.954 180.497 314.555 183.319 315.724C186.14 316.892 188.704 318.605 190.863 320.765C193.023 322.924 194.736 325.488 195.905 328.31C197.073 331.131 197.675 334.155 197.675 337.209V366.279H267.442L354.651 279.07V186.047H325.582C322.528 186.047 319.504 185.445 316.682 184.276C313.861 183.108 311.297 181.395 309.138 179.235C306.978 177.076 305.265 174.512 304.096 171.69C302.928 168.869 302.326 165.845 302.326 162.791V133.721H232.558L145.349 220.93ZM244.186 308.14H203.489V244.186L255.814 191.86H296.512V255.814L244.186 308.14Z" fill="#4E35B3"/>
</g>
<defs>
<clipPath id="clip0_539_24953">
<rect width="209.302" height="232.558" fill="white" transform="translate(145.349 133.721)"/>
</clipPath>
</defs>
</svg>
