<svg width="500" height="98" viewBox="0 0 500 98" fill="none" xmlns="http://www.w3.org/2000/svg">
<path d="M-0.5 105.611C15.2171 64.3856 82.44 -14.0454 225.595 2.03248C404.538 22.1298 469.854 -34.6838 500 -100" stroke="white" stroke-opacity="0.03" stroke-width="2"/>
<path d="M-0.5 117.222C15.2171 75.9965 82.44 -2.43452 225.595 13.6433C404.538 33.7406 469.854 -23.0729 500 -88.3892" stroke="white" stroke-opacity="0.03" stroke-width="2"/>
<path d="M-0.5 128.833C15.2171 87.6073 82.44 9.17632 225.595 25.2542C404.538 45.3515 469.854 -11.4621 500 -76.7783" stroke="white" stroke-opacity="0.03" stroke-width="2"/>
<path d="M-0.5 140.443C15.2171 99.2181 82.44 20.7872 225.595 36.865C404.538 56.9623 469.854 0.148733 500 -65.1675" stroke="white" stroke-opacity="0.03" stroke-width="2"/>
<path d="M-0.5 152.054C15.2171 110.829 82.44 32.398 225.595 48.4758C404.538 68.5731 469.854 11.7596 500 -53.5566" stroke="white" stroke-opacity="0.03" stroke-width="2"/>
<path d="M-0.5 163.665C15.2171 122.44 82.44 44.0088 225.595 60.0867C404.538 80.184 469.854 23.3704 500 -41.9458" stroke="white" stroke-opacity="0.03" stroke-width="2"/>
<path d="M-0.5 175.276C15.2171 134.051 82.44 55.6197 225.595 71.6975C404.538 91.7948 469.854 34.9813 500 -30.335" stroke="white" stroke-opacity="0.03" stroke-width="2"/>
<path d="M-0.5 186.887C15.2171 145.662 82.44 67.2305 225.595 83.3084C404.538 103.406 469.854 46.5921 500 -18.7241" stroke="white" stroke-opacity="0.03" stroke-width="2"/>
<path d="M-0.5 198.498C15.2171 157.272 82.44 78.8414 225.595 94.9192C404.538 115.016 469.854 58.2029 500 -7.11328" stroke="white" stroke-opacity="0.03" stroke-width="2"/>
</svg>
