<svg width="162" height="38" viewBox="0 0 162 38" fill="none" xmlns="http://www.w3.org/2000/svg">
<path d="M13.9287 3.76428C14.2967 3.19206 14.9304 2.84619 15.6108 2.84619H29.4066C30.9892 2.84619 31.9448 4.5971 31.0887 5.9281L20.0222 23.1339C19.6542 23.7061 19.0205 24.0519 18.3401 24.0519H4.54423C2.96169 24.0519 2.00605 22.301 2.86213 20.97L13.9287 3.76428Z" fill="#1053D5"/>
<path d="M16.4232 26.0172C15.7429 26.0172 15.1092 26.3631 14.7411 26.9353L12.0311 31.1489C11.175 32.4799 12.1306 34.2308 13.7132 34.2308H28.389C29.0694 34.2308 29.7031 33.8849 30.0711 33.3127L41.1377 16.1069C41.9938 14.7759 41.0381 13.025 39.4556 13.025H29.8696C29.1893 13.025 28.5556 13.3709 28.1875 13.9431L21.0121 25.0992C20.644 25.6714 20.0103 26.0172 19.33 26.0172H16.4232Z" fill="#FF7020"/>
<path d="M74.51 18.52C75.75 18.98 76.71 19.65 77.39 20.53C78.07 21.41 78.41 22.47 78.41 23.71C78.41 25.55 77.65 26.98 76.13 28C74.61 29 72.41 29.5 69.53 29.5H57.71V8.5H68.93C71.73 8.5 73.84 9 75.26 10C76.7 11 77.42 12.33 77.42 13.99C77.42 14.97 77.17 15.85 76.67 16.63C76.19 17.41 75.47 18.04 74.51 18.52ZM64.67 13.45V16.57H67.97C69.51 16.57 70.28 16.05 70.28 15.01C70.28 13.97 69.51 13.45 67.97 13.45H64.67ZM68.93 24.55C70.49 24.55 71.27 24 71.27 22.9C71.27 21.8 70.49 21.25 68.93 21.25H64.67V24.55H68.93ZM80.9131 8.5H87.9931V24.01H97.4731V29.5H80.9131V8.5ZM109.332 29.98C106.112 29.98 103.602 29.11 101.802 27.37C100.002 25.63 99.1023 23.19 99.1023 20.05V8.5H106.182V19.84C106.182 21.38 106.452 22.5 106.992 23.2C107.552 23.9 108.352 24.25 109.392 24.25C110.432 24.25 111.222 23.9 111.762 23.2C112.322 22.5 112.602 21.38 112.602 19.84V8.5H119.562V20.05C119.562 23.19 118.662 25.63 116.862 27.37C115.062 29.11 112.552 29.98 109.332 29.98ZM140.268 24.16V29.5H122.808V8.5H139.878V13.84H129.768V16.3H138.648V21.4H129.768V24.16H140.268ZM160.453 24.16V29.5H142.993V8.5H160.063V13.84H149.953V16.3H158.833V21.4H149.953V24.16H160.453Z" fill="#292D32"/>
</svg>
