<svg width="44" height="36" viewBox="0 0 44 36" fill="none" xmlns="http://www.w3.org/2000/svg">
<path d="M13.9287 2.76428C14.2967 2.19206 14.9304 1.84619 15.6108 1.84619H29.4066C30.9892 1.84619 31.9448 3.5971 31.0887 4.9281L20.0222 22.1339C19.6542 22.7061 19.0205 23.0519 18.3401 23.0519H4.54423C2.96169 23.0519 2.00605 21.301 2.86213 19.97L13.9287 2.76428Z" fill="#1053D5"/>
<path d="M16.4232 25.0172C15.7429 25.0172 15.1092 25.3631 14.7411 25.9353L12.0311 30.1489C11.175 31.4799 12.1306 33.2308 13.7132 33.2308H28.389C29.0694 33.2308 29.7031 32.8849 30.0711 32.3127L41.1377 15.1069C41.9938 13.7759 41.0381 12.025 39.4556 12.025H29.8696C29.1893 12.025 28.5556 12.3709 28.1875 12.9431L21.0121 24.0992C20.644 24.6714 20.0103 25.0172 19.33 25.0172H16.4232Z" fill="#FF7020"/>
</svg>
